G75*
%MOIN*%
%OFA0B0*%
%FSLAX25Y25*%
%IPPOS*%
%LPD*%
%AMOC8*
5,1,8,0,0,1.08239X$1,22.5*
%
%ADD10C,0.00600*%
%ADD11R,0.01919X0.03748*%
%ADD12R,0.05236X0.03935*%
%ADD13R,0.02280X0.05036*%
%ADD14R,0.69624X0.05098*%
%ADD15R,0.02679X0.01482*%
%ADD16R,0.00798X0.02451*%
%ADD17R,0.10835X0.02245*%
%ADD18R,0.08934X0.02864*%
%ADD19R,0.04255X0.00623*%
%ADD20R,0.03486X0.00398*%
%ADD21R,0.02672X0.02177*%
%ADD22R,0.01593X0.04805*%
%ADD23R,0.05773X0.01869*%
%ADD24R,0.03088X0.02771*%
%ADD25R,0.02726X0.00710*%
%ADD26C,0.01142*%
%ADD27R,0.04134X0.04252*%
%ADD28R,0.06299X0.05118*%
%ADD29R,0.04252X0.04134*%
%ADD30R,0.05118X0.06299*%
%ADD31R,0.06899X0.06406*%
%ADD32R,0.09173X0.06142*%
%ADD33R,0.01969X0.03150*%
%ADD34R,0.01378X0.01378*%
%ADD35R,0.06693X0.07087*%
%ADD36R,0.07087X0.06693*%
%ADD37C,0.07874*%
%ADD38C,0.06496*%
%ADD39R,0.06496X0.06496*%
%ADD40C,0.01200*%
%ADD41C,0.01772*%
%ADD42C,0.01575*%
%ADD43C,0.00800*%
%ADD44C,0.00787*%
%ADD45C,0.02400*%
%ADD46C,0.02000*%
%ADD47C,0.01600*%
%ADD48C,0.01000*%
%ADD49C,0.03200*%
%ADD50C,0.02165*%
D10*
X0004069Y0007764D02*
X0004069Y0106189D01*
X0171392Y0106189D01*
X0171392Y0007764D01*
X0004069Y0007764D01*
X0005469Y0009164D02*
X0005469Y0027270D01*
X0005851Y0026348D01*
X0007018Y0025181D01*
X0008542Y0024550D01*
X0010192Y0024550D01*
X0011717Y0025181D01*
X0012884Y0026348D01*
X0013515Y0027873D01*
X0013515Y0029523D01*
X0012884Y0031048D01*
X0011717Y0032214D01*
X0010192Y0032846D01*
X0008542Y0032846D01*
X0007018Y0032214D01*
X0005851Y0031048D01*
X0005469Y0030125D01*
X0005469Y0047270D01*
X0005851Y0046348D01*
X0007018Y0045181D01*
X0008542Y0044550D01*
X0010192Y0044550D01*
X0011717Y0045181D01*
X0012884Y0046348D01*
X0013515Y0047873D01*
X0013515Y0049523D01*
X0012884Y0051048D01*
X0011717Y0052214D01*
X0010192Y0052846D01*
X0008542Y0052846D01*
X0007018Y0052214D01*
X0005851Y0051048D01*
X0005469Y0050125D01*
X0005469Y0057270D01*
X0005851Y0056348D01*
X0007018Y0055181D01*
X0008542Y0054550D01*
X0010192Y0054550D01*
X0010726Y0054771D01*
X0011957Y0053539D01*
X0012953Y0052544D01*
X0016115Y0052544D01*
X0016403Y0052256D01*
X0018045Y0052256D01*
X0018294Y0052505D01*
X0018294Y0051603D01*
X0018822Y0051076D01*
X0021486Y0051076D01*
X0021635Y0051225D01*
X0021635Y0047908D01*
X0021111Y0047384D01*
X0018300Y0047384D01*
X0017034Y0046117D01*
X0016331Y0045414D01*
X0016331Y0037499D01*
X0015853Y0037022D01*
X0015853Y0036089D01*
X0013034Y0036089D01*
X0012507Y0035562D01*
X0012507Y0032639D01*
X0013034Y0032112D01*
X0014337Y0032112D01*
X0014337Y0027916D01*
X0014864Y0027389D01*
X0021909Y0027389D01*
X0021964Y0027444D01*
X0021964Y0026378D01*
X0021909Y0026433D01*
X0014864Y0026433D01*
X0014337Y0025906D01*
X0014337Y0020042D01*
X0014864Y0019515D01*
X0015403Y0019515D01*
X0015403Y0017632D01*
X0015931Y0017105D01*
X0074597Y0017105D01*
X0074211Y0016718D01*
X0074211Y0011839D01*
X0074738Y0011312D01*
X0079735Y0011312D01*
X0080263Y0011839D01*
X0080263Y0016718D01*
X0079876Y0017105D01*
X0086300Y0017105D01*
X0086827Y0017632D01*
X0086827Y0020969D01*
X0086852Y0020995D01*
X0086852Y0025992D01*
X0086325Y0026519D01*
X0081446Y0026519D01*
X0080919Y0025992D01*
X0080919Y0024002D01*
X0079868Y0024002D01*
X0079735Y0024135D01*
X0078305Y0024135D01*
X0078305Y0029946D01*
X0077962Y0030289D01*
X0077962Y0032604D01*
X0077495Y0033071D01*
X0079385Y0033071D01*
X0078918Y0032604D01*
X0078918Y0027607D01*
X0079445Y0027079D01*
X0084325Y0027079D01*
X0084852Y0027607D01*
X0084852Y0032604D01*
X0084325Y0033131D01*
X0081832Y0033131D01*
X0082299Y0033598D01*
X0082299Y0040643D01*
X0081772Y0041170D01*
X0075908Y0041170D01*
X0075381Y0040643D01*
X0075381Y0033840D01*
X0075035Y0033840D01*
X0075035Y0035479D01*
X0074512Y0036002D01*
X0074512Y0040562D01*
X0073809Y0041265D01*
X0069878Y0041265D01*
X0069878Y0041616D01*
X0069878Y0042111D01*
X0069878Y0042111D01*
X0069878Y0042111D01*
X0069526Y0042464D01*
X0069176Y0042814D01*
X0069176Y0042814D01*
X0069175Y0042814D01*
X0068714Y0042814D01*
X0067097Y0042814D01*
X0067097Y0043852D01*
X0066570Y0044379D01*
X0061527Y0044379D01*
X0061528Y0044842D01*
X0061668Y0044702D01*
X0062886Y0044702D01*
X0063748Y0045563D01*
X0063748Y0046782D01*
X0063373Y0047157D01*
X0063748Y0047532D01*
X0063748Y0048750D01*
X0063373Y0049125D01*
X0063748Y0049500D01*
X0063748Y0050719D01*
X0063373Y0051094D01*
X0063748Y0051469D01*
X0063748Y0052687D01*
X0063373Y0053062D01*
X0063748Y0053437D01*
X0063748Y0054656D01*
X0063373Y0055031D01*
X0063748Y0055406D01*
X0063748Y0056624D01*
X0063549Y0056823D01*
X0064555Y0056823D01*
X0065030Y0056349D01*
X0066428Y0056349D01*
X0067416Y0057337D01*
X0067416Y0058735D01*
X0067400Y0058751D01*
X0074601Y0058751D01*
X0076872Y0056480D01*
X0076872Y0055680D01*
X0075584Y0055680D01*
X0075057Y0055153D01*
X0075057Y0050274D01*
X0075584Y0049746D01*
X0080582Y0049746D01*
X0080874Y0050039D01*
X0082265Y0048649D01*
X0082265Y0044929D01*
X0082792Y0044402D01*
X0085266Y0044402D01*
X0085273Y0043368D01*
X0085154Y0043368D01*
X0084627Y0042840D01*
X0084627Y0037843D01*
X0085154Y0037316D01*
X0090034Y0037316D01*
X0090561Y0037843D01*
X0090561Y0042840D01*
X0090034Y0043368D01*
X0087861Y0043368D01*
X0087852Y0044583D01*
X0088199Y0044929D01*
X0088199Y0049927D01*
X0087671Y0050454D01*
X0084118Y0050454D01*
X0081922Y0052650D01*
X0081576Y0052996D01*
X0081109Y0052996D01*
X0081109Y0055153D01*
X0080582Y0055680D01*
X0079272Y0055680D01*
X0079272Y0057474D01*
X0078569Y0058177D01*
X0075596Y0061151D01*
X0067343Y0061151D01*
X0067416Y0061225D01*
X0067416Y0062623D01*
X0066428Y0063611D01*
X0065030Y0063611D01*
X0064543Y0063124D01*
X0063153Y0063124D01*
X0062886Y0063391D01*
X0061779Y0063391D01*
X0061779Y0064387D01*
X0062886Y0064387D01*
X0063748Y0065248D01*
X0063748Y0066467D01*
X0063584Y0066631D01*
X0064554Y0066631D01*
X0065030Y0066155D01*
X0066428Y0066155D01*
X0067416Y0067143D01*
X0067416Y0068541D01*
X0066428Y0069530D01*
X0065030Y0069530D01*
X0064531Y0069031D01*
X0063593Y0069031D01*
X0063748Y0069185D01*
X0063748Y0070404D01*
X0063373Y0070779D01*
X0063748Y0071154D01*
X0063748Y0071543D01*
X0064082Y0071877D01*
X0064785Y0072580D01*
X0064785Y0073515D01*
X0065249Y0073980D01*
X0065249Y0075378D01*
X0064785Y0075842D01*
X0064785Y0077834D01*
X0067707Y0077834D01*
X0068234Y0078362D01*
X0068234Y0083359D01*
X0067707Y0083886D01*
X0062828Y0083886D01*
X0062301Y0083359D01*
X0062301Y0078362D01*
X0062385Y0078277D01*
X0062385Y0075888D01*
X0061874Y0075378D01*
X0061874Y0073980D01*
X0062333Y0073522D01*
X0062045Y0073234D01*
X0061668Y0073234D01*
X0061293Y0072859D01*
X0060918Y0073234D01*
X0059699Y0073234D01*
X0059324Y0072859D01*
X0058949Y0073234D01*
X0057731Y0073234D01*
X0057356Y0072859D01*
X0056981Y0073234D01*
X0055762Y0073234D01*
X0055387Y0072859D01*
X0055012Y0073234D01*
X0053794Y0073234D01*
X0053419Y0072859D01*
X0053044Y0073234D01*
X0051825Y0073234D01*
X0051450Y0072859D01*
X0051248Y0073061D01*
X0051248Y0073104D01*
X0051502Y0073104D01*
X0052030Y0073631D01*
X0052030Y0077834D01*
X0053837Y0077834D01*
X0054364Y0078362D01*
X0054364Y0083359D01*
X0053837Y0083886D01*
X0048958Y0083886D01*
X0048430Y0083359D01*
X0048430Y0078362D01*
X0048637Y0078155D01*
X0048637Y0073631D01*
X0048848Y0073420D01*
X0048848Y0073234D01*
X0047888Y0073234D01*
X0047026Y0072372D01*
X0047026Y0071266D01*
X0045920Y0071266D01*
X0045780Y0071126D01*
X0045780Y0075518D01*
X0046029Y0075767D01*
X0046029Y0077165D01*
X0045462Y0077732D01*
X0046203Y0077732D01*
X0046306Y0077834D01*
X0046622Y0077834D01*
X0047149Y0078362D01*
X0047149Y0078678D01*
X0047192Y0078720D01*
X0047192Y0080118D01*
X0047149Y0080161D01*
X0047149Y0083359D01*
X0046622Y0083886D01*
X0041743Y0083886D01*
X0041216Y0083359D01*
X0041216Y0078362D01*
X0041743Y0077834D01*
X0043323Y0077834D01*
X0042654Y0077165D01*
X0042654Y0075767D01*
X0043380Y0075042D01*
X0043380Y0073055D01*
X0043201Y0073234D01*
X0041983Y0073234D01*
X0041121Y0072372D01*
X0041121Y0071266D01*
X0040126Y0071266D01*
X0040126Y0072372D01*
X0039902Y0072597D01*
X0039902Y0078003D01*
X0040260Y0078362D01*
X0040260Y0083359D01*
X0039732Y0083886D01*
X0037671Y0083886D01*
X0035828Y0085730D01*
X0034884Y0085730D01*
X0034785Y0085829D01*
X0033142Y0085829D01*
X0031981Y0084668D01*
X0031981Y0083025D01*
X0033142Y0081864D01*
X0034320Y0081864D01*
X0034326Y0081858D01*
X0034326Y0078362D01*
X0034853Y0077834D01*
X0035759Y0077834D01*
X0035759Y0073690D01*
X0036214Y0073234D01*
X0036077Y0073234D01*
X0035215Y0072372D01*
X0035215Y0071154D01*
X0035590Y0070779D01*
X0035215Y0070404D01*
X0035215Y0069185D01*
X0035590Y0068810D01*
X0035215Y0068435D01*
X0035215Y0067217D01*
X0035590Y0066842D01*
X0035215Y0066467D01*
X0035215Y0065248D01*
X0035343Y0065120D01*
X0031116Y0065120D01*
X0031116Y0067043D01*
X0030589Y0067571D01*
X0025709Y0067571D01*
X0025182Y0067043D01*
X0025182Y0062046D01*
X0025709Y0061519D01*
X0030589Y0061519D01*
X0031116Y0062046D01*
X0031116Y0062720D01*
X0035406Y0062720D01*
X0035215Y0062530D01*
X0035215Y0061311D01*
X0035590Y0060936D01*
X0035215Y0060561D01*
X0035215Y0059343D01*
X0035378Y0059180D01*
X0031116Y0059180D01*
X0031116Y0060114D01*
X0030589Y0060641D01*
X0025709Y0060641D01*
X0025182Y0060114D01*
X0025182Y0055392D01*
X0024249Y0055392D01*
X0024226Y0055369D01*
X0024226Y0060114D01*
X0023699Y0060641D01*
X0018820Y0060641D01*
X0018292Y0060114D01*
X0018292Y0055974D01*
X0018045Y0056221D01*
X0016403Y0056221D01*
X0016125Y0055944D01*
X0014361Y0055944D01*
X0013198Y0057107D01*
X0013515Y0057873D01*
X0013515Y0059523D01*
X0012884Y0061048D01*
X0011717Y0062214D01*
X0010192Y0062846D01*
X0008542Y0062846D01*
X0007018Y0062214D01*
X0005851Y0061048D01*
X0005469Y0060125D01*
X0005469Y0067270D01*
X0005851Y0066348D01*
X0007018Y0065181D01*
X0008542Y0064550D01*
X0010192Y0064550D01*
X0011717Y0065181D01*
X0012884Y0066348D01*
X0013515Y0067873D01*
X0013515Y0069523D01*
X0012884Y0071048D01*
X0011717Y0072214D01*
X0010192Y0072846D01*
X0008542Y0072846D01*
X0007018Y0072214D01*
X0005851Y0071048D01*
X0005469Y0070125D01*
X0005469Y0074828D01*
X0005746Y0074550D01*
X0012988Y0074550D01*
X0013515Y0075077D01*
X0013515Y0082319D01*
X0012988Y0082846D01*
X0005746Y0082846D01*
X0005469Y0082568D01*
X0005469Y0104789D01*
X0169992Y0104789D01*
X0169992Y0085254D01*
X0169247Y0085998D01*
X0167470Y0086735D01*
X0165545Y0086735D01*
X0163767Y0085998D01*
X0162407Y0084638D01*
X0161670Y0082860D01*
X0161670Y0080935D01*
X0162407Y0079158D01*
X0163767Y0077797D01*
X0165545Y0077061D01*
X0167470Y0077061D01*
X0169247Y0077797D01*
X0169992Y0078541D01*
X0169992Y0071474D01*
X0169247Y0072219D01*
X0167470Y0072955D01*
X0165545Y0072955D01*
X0163767Y0072219D01*
X0162407Y0070858D01*
X0161670Y0069080D01*
X0161670Y0067156D01*
X0162407Y0065378D01*
X0163767Y0064017D01*
X0165545Y0063281D01*
X0167470Y0063281D01*
X0169247Y0064017D01*
X0169992Y0064762D01*
X0169992Y0057695D01*
X0169247Y0058439D01*
X0167470Y0059176D01*
X0165545Y0059176D01*
X0163767Y0058439D01*
X0162407Y0057079D01*
X0161670Y0055301D01*
X0161670Y0053376D01*
X0162407Y0051599D01*
X0163767Y0050238D01*
X0165545Y0049502D01*
X0167470Y0049502D01*
X0169247Y0050238D01*
X0169992Y0050982D01*
X0169992Y0043915D01*
X0169247Y0044660D01*
X0167470Y0045396D01*
X0165545Y0045396D01*
X0163767Y0044660D01*
X0162407Y0043299D01*
X0161670Y0041521D01*
X0161670Y0039597D01*
X0162407Y0037819D01*
X0163767Y0036458D01*
X0165545Y0035722D01*
X0167470Y0035722D01*
X0169247Y0036458D01*
X0169992Y0037203D01*
X0169992Y0030136D01*
X0169247Y0030880D01*
X0167470Y0031617D01*
X0165545Y0031617D01*
X0163767Y0030880D01*
X0162407Y0029519D01*
X0161670Y0027742D01*
X0161670Y0027726D01*
X0153085Y0027726D01*
X0153155Y0027796D01*
X0153155Y0035235D01*
X0152628Y0035762D01*
X0150873Y0035762D01*
X0150873Y0038972D01*
X0152037Y0038972D01*
X0152564Y0039499D01*
X0152564Y0047331D01*
X0152037Y0047859D01*
X0144599Y0047859D01*
X0144071Y0047331D01*
X0144071Y0039499D01*
X0144599Y0038972D01*
X0147073Y0038972D01*
X0147073Y0035762D01*
X0144796Y0035762D01*
X0144269Y0035235D01*
X0144269Y0027796D01*
X0144339Y0027726D01*
X0137780Y0027726D01*
X0137014Y0028493D01*
X0137014Y0035235D01*
X0136486Y0035762D01*
X0133595Y0035762D01*
X0130770Y0038587D01*
X0124532Y0038587D01*
X0123435Y0039684D01*
X0123435Y0042840D01*
X0122908Y0043368D01*
X0118028Y0043368D01*
X0117501Y0042840D01*
X0117501Y0037843D01*
X0118028Y0037316D01*
X0121844Y0037316D01*
X0122552Y0036607D01*
X0123372Y0035787D01*
X0129610Y0035787D01*
X0129635Y0035762D01*
X0128654Y0035762D01*
X0128127Y0035235D01*
X0128127Y0027796D01*
X0128654Y0027269D01*
X0132863Y0027269D01*
X0135093Y0025039D01*
X0136206Y0023926D01*
X0162520Y0023926D01*
X0163767Y0022679D01*
X0165545Y0021943D01*
X0167470Y0021943D01*
X0169247Y0022679D01*
X0169992Y0023423D01*
X0169992Y0016356D01*
X0169247Y0017101D01*
X0167470Y0017837D01*
X0165545Y0017837D01*
X0165539Y0017835D01*
X0162357Y0017835D01*
X0162351Y0017837D01*
X0160427Y0017837D01*
X0158649Y0017101D01*
X0157289Y0015740D01*
X0156552Y0013962D01*
X0156552Y0012038D01*
X0157289Y0010260D01*
X0158385Y0009164D01*
X0005469Y0009164D01*
X0005469Y0009537D02*
X0158012Y0009537D01*
X0157413Y0010135D02*
X0005469Y0010135D01*
X0005469Y0010734D02*
X0157092Y0010734D01*
X0156844Y0011332D02*
X0079756Y0011332D01*
X0080263Y0011931D02*
X0156597Y0011931D01*
X0156552Y0012529D02*
X0080263Y0012529D01*
X0080263Y0013128D02*
X0156552Y0013128D01*
X0156552Y0013726D02*
X0080263Y0013726D01*
X0080263Y0014325D02*
X0156703Y0014325D01*
X0156950Y0014924D02*
X0080263Y0014924D01*
X0080263Y0015522D02*
X0157198Y0015522D01*
X0157669Y0016121D02*
X0080263Y0016121D01*
X0080262Y0016719D02*
X0158268Y0016719D01*
X0159173Y0017318D02*
X0086513Y0017318D01*
X0086827Y0017916D02*
X0169992Y0017916D01*
X0169992Y0017318D02*
X0168724Y0017318D01*
X0169629Y0016719D02*
X0169992Y0016719D01*
X0169992Y0018515D02*
X0086827Y0018515D01*
X0086827Y0019113D02*
X0169992Y0019113D01*
X0169992Y0019712D02*
X0086827Y0019712D01*
X0086827Y0020310D02*
X0169992Y0020310D01*
X0169992Y0020909D02*
X0093656Y0020909D01*
X0093742Y0020995D02*
X0093215Y0020467D01*
X0088336Y0020467D01*
X0087808Y0020995D01*
X0087808Y0025992D01*
X0088336Y0026519D01*
X0093215Y0026519D01*
X0093742Y0025992D01*
X0093742Y0025562D01*
X0095480Y0025562D01*
X0095480Y0027536D01*
X0095384Y0027632D01*
X0095384Y0034520D01*
X0095911Y0035047D01*
X0105830Y0035047D01*
X0106357Y0034520D01*
X0106357Y0027632D01*
X0105830Y0027105D01*
X0099680Y0027105D01*
X0099680Y0022592D01*
X0098449Y0021362D01*
X0093742Y0021362D01*
X0093742Y0020995D01*
X0087894Y0020909D02*
X0086827Y0020909D01*
X0086852Y0021507D02*
X0087808Y0021507D01*
X0087808Y0022106D02*
X0086852Y0022106D01*
X0086852Y0022704D02*
X0087808Y0022704D01*
X0087808Y0023303D02*
X0086852Y0023303D01*
X0086852Y0023901D02*
X0087808Y0023901D01*
X0087808Y0024500D02*
X0086852Y0024500D01*
X0086852Y0025098D02*
X0087808Y0025098D01*
X0087808Y0025697D02*
X0086852Y0025697D01*
X0086549Y0026295D02*
X0088111Y0026295D01*
X0084738Y0027492D02*
X0095480Y0027492D01*
X0095480Y0026894D02*
X0078305Y0026894D01*
X0078305Y0027492D02*
X0079033Y0027492D01*
X0078918Y0028091D02*
X0078305Y0028091D01*
X0078305Y0028689D02*
X0078918Y0028689D01*
X0078918Y0029288D02*
X0078305Y0029288D01*
X0078305Y0029886D02*
X0078918Y0029886D01*
X0078918Y0030485D02*
X0077962Y0030485D01*
X0077962Y0031083D02*
X0078918Y0031083D01*
X0078918Y0031682D02*
X0077962Y0031682D01*
X0077962Y0032280D02*
X0078918Y0032280D01*
X0079193Y0032879D02*
X0077688Y0032879D01*
X0075381Y0034076D02*
X0075035Y0034076D01*
X0075035Y0034674D02*
X0075381Y0034674D01*
X0075381Y0035273D02*
X0075035Y0035273D01*
X0075381Y0035871D02*
X0074642Y0035871D01*
X0074512Y0036470D02*
X0075381Y0036470D01*
X0075381Y0037068D02*
X0074512Y0037068D01*
X0074512Y0037667D02*
X0075381Y0037667D01*
X0075381Y0038265D02*
X0074512Y0038265D01*
X0074512Y0038864D02*
X0075381Y0038864D01*
X0075381Y0039462D02*
X0074512Y0039462D01*
X0074512Y0040061D02*
X0075381Y0040061D01*
X0075397Y0040659D02*
X0074415Y0040659D01*
X0073816Y0041258D02*
X0084627Y0041258D01*
X0084627Y0040659D02*
X0082283Y0040659D01*
X0082299Y0040061D02*
X0084627Y0040061D01*
X0084627Y0039462D02*
X0082299Y0039462D01*
X0082299Y0038864D02*
X0084627Y0038864D01*
X0084627Y0038265D02*
X0082299Y0038265D01*
X0082299Y0037667D02*
X0084803Y0037667D01*
X0082299Y0037068D02*
X0122091Y0037068D01*
X0122552Y0036607D02*
X0122552Y0036607D01*
X0122689Y0036470D02*
X0082299Y0036470D01*
X0082299Y0035871D02*
X0123288Y0035871D01*
X0122680Y0035047D02*
X0112761Y0035047D01*
X0112234Y0034520D01*
X0112234Y0027632D01*
X0112761Y0027105D01*
X0122680Y0027105D01*
X0123207Y0027632D01*
X0123207Y0034520D01*
X0122680Y0035047D01*
X0123053Y0034674D02*
X0128127Y0034674D01*
X0128127Y0034076D02*
X0123207Y0034076D01*
X0123207Y0033477D02*
X0128127Y0033477D01*
X0128127Y0032879D02*
X0123207Y0032879D01*
X0123207Y0032280D02*
X0128127Y0032280D01*
X0128127Y0031682D02*
X0123207Y0031682D01*
X0123207Y0031083D02*
X0128127Y0031083D01*
X0128127Y0030485D02*
X0123207Y0030485D01*
X0123207Y0029886D02*
X0128127Y0029886D01*
X0128127Y0029288D02*
X0123207Y0029288D01*
X0123207Y0028689D02*
X0128127Y0028689D01*
X0128127Y0028091D02*
X0123207Y0028091D01*
X0123067Y0027492D02*
X0128431Y0027492D01*
X0133239Y0026894D02*
X0099680Y0026894D01*
X0099680Y0026295D02*
X0133838Y0026295D01*
X0134436Y0025697D02*
X0099680Y0025697D01*
X0099680Y0025098D02*
X0135035Y0025098D01*
X0135633Y0024500D02*
X0099680Y0024500D01*
X0099680Y0023901D02*
X0162545Y0023901D01*
X0163144Y0023303D02*
X0099680Y0023303D01*
X0099680Y0022704D02*
X0163742Y0022704D01*
X0165151Y0022106D02*
X0099194Y0022106D01*
X0098595Y0021507D02*
X0169992Y0021507D01*
X0169992Y0022106D02*
X0167863Y0022106D01*
X0169273Y0022704D02*
X0169992Y0022704D01*
X0169992Y0023303D02*
X0169871Y0023303D01*
X0161815Y0028091D02*
X0153155Y0028091D01*
X0153155Y0028689D02*
X0162063Y0028689D01*
X0162311Y0029288D02*
X0153155Y0029288D01*
X0153155Y0029886D02*
X0162774Y0029886D01*
X0163372Y0030485D02*
X0153155Y0030485D01*
X0153155Y0031083D02*
X0164258Y0031083D01*
X0168757Y0031083D02*
X0169992Y0031083D01*
X0169992Y0030485D02*
X0169643Y0030485D01*
X0169992Y0031682D02*
X0153155Y0031682D01*
X0153155Y0032280D02*
X0169992Y0032280D01*
X0169992Y0032879D02*
X0153155Y0032879D01*
X0153155Y0033477D02*
X0169992Y0033477D01*
X0169992Y0034076D02*
X0153155Y0034076D01*
X0153155Y0034674D02*
X0169992Y0034674D01*
X0169992Y0035273D02*
X0153117Y0035273D01*
X0150873Y0035871D02*
X0165185Y0035871D01*
X0163756Y0036470D02*
X0150873Y0036470D01*
X0150873Y0037068D02*
X0163157Y0037068D01*
X0162559Y0037667D02*
X0150873Y0037667D01*
X0150873Y0038265D02*
X0162222Y0038265D01*
X0161974Y0038864D02*
X0150873Y0038864D01*
X0152527Y0039462D02*
X0161726Y0039462D01*
X0161670Y0040061D02*
X0152564Y0040061D01*
X0152564Y0040659D02*
X0161670Y0040659D01*
X0161670Y0041258D02*
X0152564Y0041258D01*
X0152564Y0041857D02*
X0161809Y0041857D01*
X0162057Y0042455D02*
X0152564Y0042455D01*
X0152564Y0043054D02*
X0162305Y0043054D01*
X0162760Y0043652D02*
X0152564Y0043652D01*
X0152564Y0044251D02*
X0163358Y0044251D01*
X0164225Y0044849D02*
X0152564Y0044849D01*
X0152564Y0045448D02*
X0169992Y0045448D01*
X0169992Y0046046D02*
X0152564Y0046046D01*
X0152564Y0046645D02*
X0169992Y0046645D01*
X0169992Y0047243D02*
X0152564Y0047243D01*
X0152054Y0047842D02*
X0169992Y0047842D01*
X0169992Y0048440D02*
X0143536Y0048440D01*
X0142937Y0047842D02*
X0144582Y0047842D01*
X0144071Y0047243D02*
X0143115Y0047243D01*
X0143115Y0047331D02*
X0142771Y0047676D01*
X0149098Y0054002D01*
X0150210Y0055114D01*
X0152037Y0055114D01*
X0152564Y0055641D01*
X0152564Y0063473D01*
X0152037Y0064000D01*
X0144599Y0064000D01*
X0144071Y0063473D01*
X0144071Y0055641D01*
X0144599Y0055114D01*
X0144836Y0055114D01*
X0137580Y0047859D01*
X0135150Y0047859D01*
X0134623Y0047331D01*
X0134623Y0039499D01*
X0135150Y0038972D01*
X0142588Y0038972D01*
X0143115Y0039499D01*
X0143115Y0047331D01*
X0143115Y0046645D02*
X0144071Y0046645D01*
X0144071Y0046046D02*
X0143115Y0046046D01*
X0143115Y0045448D02*
X0144071Y0045448D01*
X0144071Y0044849D02*
X0143115Y0044849D01*
X0143115Y0044251D02*
X0144071Y0044251D01*
X0144071Y0043652D02*
X0143115Y0043652D01*
X0143115Y0043054D02*
X0144071Y0043054D01*
X0144071Y0042455D02*
X0143115Y0042455D01*
X0143115Y0041857D02*
X0144071Y0041857D01*
X0144071Y0041258D02*
X0143115Y0041258D01*
X0143115Y0040659D02*
X0144071Y0040659D01*
X0144071Y0040061D02*
X0143115Y0040061D01*
X0143079Y0039462D02*
X0144108Y0039462D01*
X0147073Y0038864D02*
X0124255Y0038864D01*
X0123656Y0039462D02*
X0125211Y0039462D01*
X0125174Y0039499D02*
X0125701Y0038972D01*
X0133139Y0038972D01*
X0133667Y0039499D01*
X0133667Y0047331D01*
X0133139Y0047859D01*
X0125701Y0047859D01*
X0125174Y0047331D01*
X0125174Y0039499D01*
X0125174Y0040061D02*
X0123435Y0040061D01*
X0123435Y0040659D02*
X0125174Y0040659D01*
X0125174Y0041258D02*
X0123435Y0041258D01*
X0123435Y0041857D02*
X0125174Y0041857D01*
X0125174Y0042455D02*
X0123435Y0042455D01*
X0123222Y0043054D02*
X0125174Y0043054D01*
X0125174Y0043652D02*
X0114755Y0043652D01*
X0114755Y0043368D02*
X0114755Y0044402D01*
X0116018Y0044402D01*
X0116545Y0044929D01*
X0116545Y0049927D01*
X0116018Y0050454D01*
X0111138Y0050454D01*
X0110753Y0050069D01*
X0110367Y0050454D01*
X0108583Y0050454D01*
X0108583Y0052573D01*
X0113493Y0052573D01*
X0114020Y0053100D01*
X0114020Y0060251D01*
X0113493Y0060779D01*
X0105848Y0060779D01*
X0105321Y0060251D01*
X0105321Y0053100D01*
X0105848Y0052573D01*
X0105996Y0052573D01*
X0105996Y0050454D01*
X0105488Y0050454D01*
X0104960Y0049927D01*
X0104960Y0044929D01*
X0105488Y0044402D01*
X0110367Y0044402D01*
X0110753Y0044788D01*
X0111138Y0044402D01*
X0112168Y0044402D01*
X0112168Y0043368D01*
X0111138Y0043368D01*
X0110611Y0042840D01*
X0110611Y0041577D01*
X0097451Y0041577D01*
X0097451Y0042840D01*
X0096923Y0043368D01*
X0092044Y0043368D01*
X0091517Y0042840D01*
X0091517Y0037843D01*
X0092044Y0037316D01*
X0096923Y0037316D01*
X0097451Y0037843D01*
X0097451Y0038989D01*
X0110611Y0038989D01*
X0110611Y0037843D01*
X0111138Y0037316D01*
X0116018Y0037316D01*
X0116545Y0037843D01*
X0116545Y0042840D01*
X0116018Y0043368D01*
X0114755Y0043368D01*
X0114755Y0044251D02*
X0125174Y0044251D01*
X0125174Y0044849D02*
X0123354Y0044849D01*
X0123435Y0044929D02*
X0123435Y0049927D01*
X0122908Y0050454D01*
X0121961Y0050454D01*
X0121961Y0051504D01*
X0118709Y0054756D01*
X0118709Y0065370D01*
X0114020Y0070059D01*
X0114020Y0075049D01*
X0125385Y0063684D01*
X0125174Y0063473D01*
X0125174Y0055641D01*
X0125701Y0055114D01*
X0133139Y0055114D01*
X0133667Y0055641D01*
X0133667Y0056585D01*
X0134623Y0056585D01*
X0134623Y0055641D01*
X0135150Y0055114D01*
X0142588Y0055114D01*
X0143115Y0055641D01*
X0143115Y0063473D01*
X0142588Y0064000D01*
X0139555Y0064000D01*
X0139555Y0069938D01*
X0140189Y0069938D01*
X0140716Y0070465D01*
X0140716Y0072589D01*
X0140189Y0073116D01*
X0139535Y0073116D01*
X0139535Y0073475D01*
X0139008Y0074002D01*
X0136294Y0074002D01*
X0135767Y0073475D01*
X0135767Y0071658D01*
X0135755Y0071646D01*
X0135755Y0064000D01*
X0135150Y0064000D01*
X0134623Y0063473D01*
X0134623Y0061866D01*
X0133667Y0061866D01*
X0133667Y0063473D01*
X0133139Y0064000D01*
X0129877Y0064000D01*
X0129743Y0064135D01*
X0116640Y0077238D01*
X0121584Y0077238D01*
X0122111Y0077765D01*
X0122111Y0084810D01*
X0121584Y0085337D01*
X0115720Y0085337D01*
X0115193Y0084810D01*
X0115193Y0078684D01*
X0114237Y0079640D01*
X0114237Y0084810D01*
X0113710Y0085337D01*
X0107846Y0085337D01*
X0107319Y0084810D01*
X0107319Y0083775D01*
X0092633Y0083775D01*
X0092633Y0084820D01*
X0092106Y0085347D01*
X0086242Y0085347D01*
X0085715Y0084820D01*
X0085715Y0077775D01*
X0086242Y0077248D01*
X0092106Y0077248D01*
X0092633Y0077775D01*
X0092633Y0078775D01*
X0107319Y0078775D01*
X0107319Y0077765D01*
X0107846Y0077238D01*
X0111831Y0077238D01*
X0112462Y0076607D01*
X0105848Y0076607D01*
X0105321Y0076080D01*
X0105321Y0068929D01*
X0105848Y0068402D01*
X0112018Y0068402D01*
X0116122Y0064298D01*
X0116122Y0053684D01*
X0116879Y0052926D01*
X0119351Y0050454D01*
X0118028Y0050454D01*
X0117501Y0049927D01*
X0117501Y0044929D01*
X0118028Y0044402D01*
X0122908Y0044402D01*
X0123435Y0044929D01*
X0123435Y0045448D02*
X0125174Y0045448D01*
X0125174Y0046046D02*
X0123435Y0046046D01*
X0123435Y0046645D02*
X0125174Y0046645D01*
X0125174Y0047243D02*
X0123435Y0047243D01*
X0123435Y0047842D02*
X0125684Y0047842D01*
X0123435Y0048440D02*
X0138162Y0048440D01*
X0138760Y0049039D02*
X0123435Y0049039D01*
X0123435Y0049637D02*
X0139359Y0049637D01*
X0139957Y0050236D02*
X0123126Y0050236D01*
X0121961Y0050834D02*
X0140556Y0050834D01*
X0141155Y0051433D02*
X0121961Y0051433D01*
X0121433Y0052031D02*
X0141753Y0052031D01*
X0142352Y0052630D02*
X0120835Y0052630D01*
X0120236Y0053228D02*
X0142950Y0053228D01*
X0143549Y0053827D02*
X0119638Y0053827D01*
X0119039Y0054425D02*
X0144147Y0054425D01*
X0144746Y0055024D02*
X0118709Y0055024D01*
X0118709Y0055622D02*
X0125192Y0055622D01*
X0125174Y0056221D02*
X0118709Y0056221D01*
X0118709Y0056819D02*
X0125174Y0056819D01*
X0125174Y0057418D02*
X0118709Y0057418D01*
X0118709Y0058016D02*
X0125174Y0058016D01*
X0125174Y0058615D02*
X0118709Y0058615D01*
X0118709Y0059213D02*
X0125174Y0059213D01*
X0125174Y0059812D02*
X0118709Y0059812D01*
X0118709Y0060410D02*
X0125174Y0060410D01*
X0125174Y0061009D02*
X0118709Y0061009D01*
X0118709Y0061607D02*
X0125174Y0061607D01*
X0125174Y0062206D02*
X0118709Y0062206D01*
X0118709Y0062804D02*
X0125174Y0062804D01*
X0125174Y0063403D02*
X0118709Y0063403D01*
X0118709Y0064001D02*
X0125068Y0064001D01*
X0124469Y0064600D02*
X0118709Y0064600D01*
X0118709Y0065198D02*
X0123871Y0065198D01*
X0123272Y0065797D02*
X0118282Y0065797D01*
X0117684Y0066395D02*
X0122674Y0066395D01*
X0122075Y0066994D02*
X0117085Y0066994D01*
X0116487Y0067593D02*
X0121477Y0067593D01*
X0120878Y0068191D02*
X0115888Y0068191D01*
X0115290Y0068790D02*
X0120280Y0068790D01*
X0119681Y0069388D02*
X0114691Y0069388D01*
X0114093Y0069987D02*
X0119083Y0069987D01*
X0118484Y0070585D02*
X0114020Y0070585D01*
X0114020Y0071184D02*
X0117886Y0071184D01*
X0117287Y0071782D02*
X0114020Y0071782D01*
X0114020Y0072381D02*
X0116688Y0072381D01*
X0116090Y0072979D02*
X0114020Y0072979D01*
X0114020Y0073578D02*
X0115491Y0073578D01*
X0114893Y0074176D02*
X0114020Y0074176D01*
X0114020Y0074775D02*
X0114294Y0074775D01*
X0111900Y0077169D02*
X0064785Y0077169D01*
X0064785Y0077767D02*
X0077849Y0077767D01*
X0077841Y0077775D02*
X0078368Y0077248D01*
X0084232Y0077248D01*
X0084759Y0077775D01*
X0084759Y0084820D01*
X0084232Y0085347D01*
X0078368Y0085347D01*
X0077841Y0084820D01*
X0077841Y0077775D01*
X0077841Y0078366D02*
X0075124Y0078366D01*
X0075124Y0078362D02*
X0075124Y0083359D01*
X0074597Y0083886D01*
X0069718Y0083886D01*
X0069190Y0083359D01*
X0069190Y0078362D01*
X0069718Y0077834D01*
X0074597Y0077834D01*
X0075124Y0078362D01*
X0075124Y0078964D02*
X0077841Y0078964D01*
X0077841Y0079563D02*
X0075124Y0079563D01*
X0075124Y0080161D02*
X0077841Y0080161D01*
X0077841Y0080760D02*
X0075124Y0080760D01*
X0075124Y0081358D02*
X0077841Y0081358D01*
X0077841Y0081957D02*
X0075124Y0081957D01*
X0075124Y0082555D02*
X0077841Y0082555D01*
X0077841Y0083154D02*
X0075124Y0083154D01*
X0074731Y0083752D02*
X0077841Y0083752D01*
X0077841Y0084351D02*
X0037207Y0084351D01*
X0036608Y0084949D02*
X0077971Y0084949D01*
X0084629Y0084949D02*
X0085845Y0084949D01*
X0085715Y0084351D02*
X0084759Y0084351D01*
X0084759Y0083752D02*
X0085715Y0083752D01*
X0085715Y0083154D02*
X0084759Y0083154D01*
X0084759Y0082555D02*
X0085715Y0082555D01*
X0085715Y0081957D02*
X0084759Y0081957D01*
X0084759Y0081358D02*
X0085715Y0081358D01*
X0085251Y0081399D02*
X0085251Y0086986D01*
X0092503Y0084949D02*
X0107459Y0084949D01*
X0107319Y0084351D02*
X0092633Y0084351D01*
X0085715Y0080760D02*
X0084759Y0080760D01*
X0084759Y0080161D02*
X0085715Y0080161D01*
X0085715Y0079563D02*
X0084759Y0079563D01*
X0084759Y0078964D02*
X0085715Y0078964D01*
X0085715Y0078366D02*
X0084759Y0078366D01*
X0084751Y0077767D02*
X0085723Y0077767D01*
X0082618Y0076814D02*
X0082091Y0076287D01*
X0082091Y0069136D01*
X0082618Y0068609D01*
X0090263Y0068609D01*
X0090790Y0069136D01*
X0090790Y0076287D01*
X0090263Y0076814D01*
X0082618Y0076814D01*
X0082374Y0076570D02*
X0064785Y0076570D01*
X0064785Y0075972D02*
X0082091Y0075972D01*
X0082091Y0075373D02*
X0065249Y0075373D01*
X0065249Y0074775D02*
X0082091Y0074775D01*
X0082091Y0074176D02*
X0065249Y0074176D01*
X0064847Y0073578D02*
X0082091Y0073578D01*
X0082091Y0072979D02*
X0064785Y0072979D01*
X0064586Y0072381D02*
X0082091Y0072381D01*
X0082091Y0071782D02*
X0063987Y0071782D01*
X0064082Y0071877D02*
X0064082Y0071877D01*
X0063748Y0071184D02*
X0082091Y0071184D01*
X0082091Y0070585D02*
X0063567Y0070585D01*
X0063748Y0069987D02*
X0082091Y0069987D01*
X0082091Y0069388D02*
X0066569Y0069388D01*
X0067168Y0068790D02*
X0082438Y0068790D01*
X0090444Y0068790D02*
X0105461Y0068790D01*
X0105321Y0069388D02*
X0090790Y0069388D01*
X0090790Y0069987D02*
X0105321Y0069987D01*
X0105321Y0070585D02*
X0090790Y0070585D01*
X0090790Y0071184D02*
X0105321Y0071184D01*
X0105321Y0071782D02*
X0090790Y0071782D01*
X0090790Y0072381D02*
X0105321Y0072381D01*
X0105321Y0072979D02*
X0090790Y0072979D01*
X0090790Y0073578D02*
X0105321Y0073578D01*
X0105321Y0074176D02*
X0090790Y0074176D01*
X0090790Y0074775D02*
X0105321Y0074775D01*
X0105321Y0075373D02*
X0090790Y0075373D01*
X0090790Y0075972D02*
X0105321Y0075972D01*
X0105811Y0076570D02*
X0090507Y0076570D01*
X0092625Y0077767D02*
X0107319Y0077767D01*
X0107319Y0078366D02*
X0092633Y0078366D01*
X0112229Y0068191D02*
X0067416Y0068191D01*
X0067416Y0067593D02*
X0112828Y0067593D01*
X0113426Y0066994D02*
X0067267Y0066994D01*
X0066669Y0066395D02*
X0114025Y0066395D01*
X0114623Y0065797D02*
X0063748Y0065797D01*
X0063748Y0066395D02*
X0064789Y0066395D01*
X0063698Y0065198D02*
X0115222Y0065198D01*
X0115820Y0064600D02*
X0063099Y0064600D01*
X0061779Y0064001D02*
X0116122Y0064001D01*
X0116122Y0063403D02*
X0066636Y0063403D01*
X0067234Y0062804D02*
X0116122Y0062804D01*
X0116122Y0062206D02*
X0067416Y0062206D01*
X0067416Y0061607D02*
X0116122Y0061607D01*
X0116122Y0061009D02*
X0075738Y0061009D01*
X0076336Y0060410D02*
X0082250Y0060410D01*
X0082091Y0060251D02*
X0082091Y0053100D01*
X0082618Y0052573D01*
X0089394Y0052573D01*
X0089637Y0052330D01*
X0089637Y0050410D01*
X0089155Y0049927D01*
X0089155Y0044929D01*
X0089682Y0044402D01*
X0094561Y0044402D01*
X0095088Y0044929D01*
X0095088Y0049927D01*
X0094561Y0050454D01*
X0092225Y0050454D01*
X0092225Y0053402D01*
X0091467Y0054160D01*
X0090790Y0054836D01*
X0090790Y0060251D01*
X0090263Y0060779D01*
X0082618Y0060779D01*
X0082091Y0060251D01*
X0082091Y0059812D02*
X0076935Y0059812D01*
X0077533Y0059213D02*
X0082091Y0059213D01*
X0082091Y0058615D02*
X0078132Y0058615D01*
X0078730Y0058016D02*
X0082091Y0058016D01*
X0082091Y0057418D02*
X0079272Y0057418D01*
X0079272Y0056819D02*
X0082091Y0056819D01*
X0082091Y0056221D02*
X0079272Y0056221D01*
X0078072Y0056977D02*
X0078072Y0053513D01*
X0075057Y0053228D02*
X0063539Y0053228D01*
X0063748Y0052630D02*
X0075057Y0052630D01*
X0075057Y0052031D02*
X0063748Y0052031D01*
X0063712Y0051433D02*
X0075057Y0051433D01*
X0075057Y0050834D02*
X0063632Y0050834D01*
X0063748Y0050236D02*
X0075095Y0050236D01*
X0075584Y0048790D02*
X0075057Y0048263D01*
X0075057Y0043384D01*
X0075584Y0042857D01*
X0080582Y0042857D01*
X0081109Y0043384D01*
X0081109Y0048263D01*
X0080582Y0048790D01*
X0075584Y0048790D01*
X0075234Y0048440D02*
X0063748Y0048440D01*
X0063748Y0047842D02*
X0075057Y0047842D01*
X0075057Y0047243D02*
X0063459Y0047243D01*
X0063748Y0046645D02*
X0075057Y0046645D01*
X0075057Y0046046D02*
X0063748Y0046046D01*
X0063632Y0045448D02*
X0075057Y0045448D01*
X0075057Y0044849D02*
X0063033Y0044849D01*
X0060319Y0046080D02*
X0060319Y0049726D01*
X0059903Y0050143D01*
X0056377Y0050143D01*
X0056377Y0050861D01*
X0054665Y0052573D01*
X0056290Y0052780D02*
X0057025Y0052045D01*
X0058331Y0052045D01*
X0056290Y0052780D02*
X0056285Y0057982D01*
X0055353Y0058877D01*
X0055342Y0060364D01*
X0056006Y0061252D01*
X0056290Y0061252D01*
X0056752Y0061713D01*
X0056752Y0061878D01*
X0058401Y0061878D01*
X0056752Y0061878D02*
X0056752Y0065309D01*
X0055861Y0066200D01*
X0053420Y0066200D01*
X0052431Y0067190D01*
X0052431Y0069796D01*
X0050451Y0071775D01*
X0050467Y0071759D02*
X0050048Y0072178D01*
X0050048Y0081308D01*
X0048430Y0081358D02*
X0047149Y0081358D01*
X0047149Y0080760D02*
X0048430Y0080760D01*
X0048430Y0080161D02*
X0047149Y0080161D01*
X0047192Y0079563D02*
X0048430Y0079563D01*
X0048430Y0078964D02*
X0047192Y0078964D01*
X0047149Y0078366D02*
X0048430Y0078366D01*
X0048637Y0077767D02*
X0046239Y0077767D01*
X0046025Y0077169D02*
X0048637Y0077169D01*
X0048637Y0076570D02*
X0046029Y0076570D01*
X0046029Y0075972D02*
X0048637Y0075972D01*
X0048637Y0075373D02*
X0045780Y0075373D01*
X0045780Y0074775D02*
X0048637Y0074775D01*
X0048637Y0074176D02*
X0045780Y0074176D01*
X0045780Y0073578D02*
X0048691Y0073578D01*
X0047633Y0072979D02*
X0045780Y0072979D01*
X0045780Y0072381D02*
X0047035Y0072381D01*
X0047026Y0071782D02*
X0045780Y0071782D01*
X0045780Y0071184D02*
X0045838Y0071184D01*
X0044580Y0069796D02*
X0044580Y0076229D01*
X0044382Y0076427D01*
X0043048Y0075373D02*
X0039902Y0075373D01*
X0039902Y0074775D02*
X0043380Y0074775D01*
X0043380Y0074176D02*
X0039902Y0074176D01*
X0039902Y0073578D02*
X0043380Y0073578D01*
X0041728Y0072979D02*
X0039902Y0072979D01*
X0040117Y0072381D02*
X0041129Y0072381D01*
X0041121Y0071782D02*
X0040126Y0071782D01*
X0038702Y0071687D02*
X0038702Y0079668D01*
X0040260Y0079563D02*
X0041216Y0079563D01*
X0041216Y0080161D02*
X0040260Y0080161D01*
X0040260Y0080760D02*
X0041216Y0080760D01*
X0041216Y0081358D02*
X0040260Y0081358D01*
X0040260Y0081957D02*
X0041216Y0081957D01*
X0041216Y0082555D02*
X0040260Y0082555D01*
X0040260Y0083154D02*
X0041216Y0083154D01*
X0041609Y0083752D02*
X0039866Y0083752D01*
X0036010Y0085548D02*
X0142147Y0085548D01*
X0142147Y0086146D02*
X0005469Y0086146D01*
X0005469Y0085548D02*
X0032861Y0085548D01*
X0032262Y0084949D02*
X0005469Y0084949D01*
X0005469Y0084351D02*
X0031981Y0084351D01*
X0031981Y0083752D02*
X0005469Y0083752D01*
X0005469Y0083154D02*
X0031981Y0083154D01*
X0032450Y0082555D02*
X0013279Y0082555D01*
X0013515Y0081957D02*
X0033049Y0081957D01*
X0034326Y0081358D02*
X0013515Y0081358D01*
X0013515Y0080760D02*
X0034326Y0080760D01*
X0034326Y0080161D02*
X0013515Y0080161D01*
X0013515Y0079563D02*
X0034326Y0079563D01*
X0034326Y0078964D02*
X0013515Y0078964D01*
X0013515Y0078366D02*
X0034326Y0078366D01*
X0035759Y0077767D02*
X0013515Y0077767D01*
X0013515Y0077169D02*
X0035759Y0077169D01*
X0035759Y0076570D02*
X0013515Y0076570D01*
X0013515Y0075972D02*
X0035759Y0075972D01*
X0035759Y0075373D02*
X0013515Y0075373D01*
X0013213Y0074775D02*
X0035759Y0074775D01*
X0035759Y0074176D02*
X0005469Y0074176D01*
X0005469Y0073578D02*
X0035871Y0073578D01*
X0035822Y0072979D02*
X0005469Y0072979D01*
X0005469Y0072381D02*
X0007419Y0072381D01*
X0006585Y0071782D02*
X0005469Y0071782D01*
X0005469Y0071184D02*
X0005987Y0071184D01*
X0005659Y0070585D02*
X0005469Y0070585D01*
X0005469Y0066994D02*
X0005583Y0066994D01*
X0005469Y0066395D02*
X0005831Y0066395D01*
X0005469Y0065797D02*
X0006402Y0065797D01*
X0007001Y0065198D02*
X0005469Y0065198D01*
X0005469Y0064600D02*
X0008421Y0064600D01*
X0010313Y0064600D02*
X0018292Y0064600D01*
X0018292Y0065198D02*
X0011734Y0065198D01*
X0012333Y0065797D02*
X0018292Y0065797D01*
X0018292Y0066395D02*
X0012903Y0066395D01*
X0013151Y0066994D02*
X0018292Y0066994D01*
X0018292Y0067043D02*
X0018292Y0062046D01*
X0018820Y0061519D01*
X0023699Y0061519D01*
X0024226Y0062046D01*
X0024226Y0067043D01*
X0023699Y0067571D01*
X0018820Y0067571D01*
X0018292Y0067043D01*
X0013515Y0068191D02*
X0035215Y0068191D01*
X0035215Y0067593D02*
X0013399Y0067593D01*
X0013515Y0068790D02*
X0035570Y0068790D01*
X0035215Y0069388D02*
X0013515Y0069388D01*
X0013323Y0069987D02*
X0035215Y0069987D01*
X0035397Y0070585D02*
X0013075Y0070585D01*
X0012748Y0071184D02*
X0035215Y0071184D01*
X0035215Y0071782D02*
X0012149Y0071782D01*
X0011316Y0072381D02*
X0035224Y0072381D01*
X0039902Y0075972D02*
X0042654Y0075972D01*
X0042654Y0076570D02*
X0039902Y0076570D01*
X0039902Y0077169D02*
X0042658Y0077169D01*
X0043256Y0077767D02*
X0039902Y0077767D01*
X0040260Y0078366D02*
X0041216Y0078366D01*
X0041216Y0078964D02*
X0040260Y0078964D01*
X0045173Y0079924D02*
X0047291Y0077806D01*
X0047291Y0074667D01*
X0046528Y0073903D01*
X0046528Y0069767D01*
X0046564Y0067785D02*
X0046564Y0065792D01*
X0044617Y0066227D02*
X0044136Y0065746D01*
X0044617Y0066227D02*
X0044617Y0067854D01*
X0040649Y0069739D02*
X0040649Y0076295D01*
X0042007Y0076262D01*
X0051330Y0072979D02*
X0051570Y0072979D01*
X0051976Y0073578D02*
X0062276Y0073578D01*
X0061874Y0074176D02*
X0052030Y0074176D01*
X0052030Y0074775D02*
X0061874Y0074775D01*
X0061874Y0075373D02*
X0052030Y0075373D01*
X0052030Y0075972D02*
X0062385Y0075972D01*
X0062385Y0076570D02*
X0052030Y0076570D01*
X0052030Y0077169D02*
X0062385Y0077169D01*
X0062385Y0077767D02*
X0052030Y0077767D01*
X0054364Y0078366D02*
X0055320Y0078366D01*
X0055320Y0078362D02*
X0055847Y0077834D01*
X0060727Y0077834D01*
X0061254Y0078362D01*
X0061254Y0083359D01*
X0060727Y0083886D01*
X0055847Y0083886D01*
X0055320Y0083359D01*
X0055320Y0078362D01*
X0055320Y0078964D02*
X0054364Y0078964D01*
X0054364Y0079563D02*
X0055320Y0079563D01*
X0055320Y0080161D02*
X0054364Y0080161D01*
X0054364Y0080760D02*
X0055320Y0080760D01*
X0055320Y0081358D02*
X0054364Y0081358D01*
X0054364Y0081957D02*
X0055320Y0081957D01*
X0055320Y0082555D02*
X0054364Y0082555D01*
X0054364Y0083154D02*
X0055320Y0083154D01*
X0055713Y0083752D02*
X0053971Y0083752D01*
X0056758Y0083294D02*
X0059920Y0083294D01*
X0060861Y0083752D02*
X0062694Y0083752D01*
X0062301Y0083154D02*
X0061254Y0083154D01*
X0061254Y0082555D02*
X0062301Y0082555D01*
X0062301Y0081957D02*
X0061254Y0081957D01*
X0061254Y0081358D02*
X0062301Y0081358D01*
X0062301Y0080760D02*
X0061254Y0080760D01*
X0061254Y0080161D02*
X0062301Y0080161D01*
X0062301Y0079563D02*
X0061254Y0079563D01*
X0061254Y0078964D02*
X0062301Y0078964D01*
X0062301Y0078366D02*
X0061254Y0078366D01*
X0059380Y0077430D02*
X0057180Y0077430D01*
X0058253Y0077458D02*
X0058253Y0081334D01*
X0058408Y0082520D02*
X0058408Y0083886D01*
X0063585Y0078941D02*
X0064272Y0079629D01*
X0063585Y0078941D02*
X0063585Y0073077D01*
X0062302Y0071794D01*
X0061413Y0072979D02*
X0061172Y0072979D01*
X0059444Y0072979D02*
X0059204Y0072979D01*
X0057476Y0072979D02*
X0057235Y0072979D01*
X0056389Y0071808D02*
X0056389Y0074745D01*
X0057148Y0075503D01*
X0055507Y0072979D02*
X0055267Y0072979D01*
X0053539Y0072979D02*
X0053298Y0072979D01*
X0060339Y0067831D02*
X0065754Y0067831D01*
X0064888Y0069388D02*
X0063748Y0069388D01*
X0064353Y0069769D02*
X0062276Y0069769D01*
X0064353Y0069769D02*
X0065723Y0071139D01*
X0068234Y0078366D02*
X0069190Y0078366D01*
X0069190Y0078964D02*
X0068234Y0078964D01*
X0068234Y0079563D02*
X0069190Y0079563D01*
X0069190Y0080161D02*
X0068234Y0080161D01*
X0068234Y0080760D02*
X0069190Y0080760D01*
X0069190Y0081358D02*
X0068234Y0081358D01*
X0068234Y0081957D02*
X0069190Y0081957D01*
X0069190Y0082555D02*
X0068234Y0082555D01*
X0068234Y0083154D02*
X0069190Y0083154D01*
X0069584Y0083752D02*
X0067841Y0083752D01*
X0048824Y0083752D02*
X0046756Y0083752D01*
X0047149Y0083154D02*
X0048430Y0083154D01*
X0048430Y0082555D02*
X0047149Y0082555D01*
X0047149Y0081957D02*
X0048430Y0081957D01*
X0035438Y0066994D02*
X0031116Y0066994D01*
X0031116Y0066395D02*
X0035215Y0066395D01*
X0035215Y0065797D02*
X0031116Y0065797D01*
X0031116Y0065198D02*
X0035265Y0065198D01*
X0035215Y0062206D02*
X0031116Y0062206D01*
X0030678Y0061607D02*
X0035215Y0061607D01*
X0035518Y0061009D02*
X0012900Y0061009D01*
X0013148Y0060410D02*
X0018589Y0060410D01*
X0018292Y0059812D02*
X0013396Y0059812D01*
X0013515Y0059213D02*
X0018292Y0059213D01*
X0018292Y0058615D02*
X0013515Y0058615D01*
X0013515Y0058016D02*
X0018292Y0058016D01*
X0018292Y0057418D02*
X0013327Y0057418D01*
X0013485Y0056819D02*
X0018292Y0056819D01*
X0018292Y0056221D02*
X0018045Y0056221D01*
X0016402Y0056221D02*
X0014084Y0056221D01*
X0011071Y0054425D02*
X0005469Y0054425D01*
X0005469Y0053827D02*
X0011670Y0053827D01*
X0012268Y0053228D02*
X0005469Y0053228D01*
X0005469Y0052630D02*
X0008020Y0052630D01*
X0006834Y0052031D02*
X0005469Y0052031D01*
X0005469Y0051433D02*
X0006236Y0051433D01*
X0005762Y0050834D02*
X0005469Y0050834D01*
X0005469Y0050236D02*
X0005514Y0050236D01*
X0010714Y0052630D02*
X0012867Y0052630D01*
X0011900Y0052031D02*
X0018294Y0052031D01*
X0018465Y0051433D02*
X0012499Y0051433D01*
X0012972Y0050834D02*
X0021635Y0050834D01*
X0021635Y0050236D02*
X0013220Y0050236D01*
X0013468Y0049637D02*
X0021635Y0049637D01*
X0021635Y0049039D02*
X0013515Y0049039D01*
X0013515Y0048440D02*
X0021635Y0048440D01*
X0021569Y0047842D02*
X0013502Y0047842D01*
X0013254Y0047243D02*
X0018160Y0047243D01*
X0017561Y0046645D02*
X0013007Y0046645D01*
X0012582Y0046046D02*
X0016963Y0046046D01*
X0016364Y0045448D02*
X0011983Y0045448D01*
X0010915Y0044849D02*
X0016331Y0044849D01*
X0016331Y0044251D02*
X0005469Y0044251D01*
X0005469Y0044849D02*
X0007820Y0044849D01*
X0006751Y0045448D02*
X0005469Y0045448D01*
X0005469Y0046046D02*
X0006153Y0046046D01*
X0005728Y0046645D02*
X0005469Y0046645D01*
X0005469Y0047243D02*
X0005480Y0047243D01*
X0005469Y0043652D02*
X0016331Y0043652D01*
X0016331Y0043054D02*
X0005469Y0043054D01*
X0005469Y0042455D02*
X0016331Y0042455D01*
X0016331Y0041857D02*
X0005469Y0041857D01*
X0005469Y0041258D02*
X0016331Y0041258D01*
X0016331Y0040659D02*
X0005469Y0040659D01*
X0005469Y0040061D02*
X0016331Y0040061D01*
X0016331Y0039462D02*
X0005469Y0039462D01*
X0005469Y0038864D02*
X0016331Y0038864D01*
X0016331Y0038265D02*
X0005469Y0038265D01*
X0005469Y0037667D02*
X0016331Y0037667D01*
X0015900Y0037068D02*
X0005469Y0037068D01*
X0005469Y0036470D02*
X0015853Y0036470D01*
X0017531Y0036405D02*
X0017531Y0044917D01*
X0018797Y0046184D01*
X0021608Y0046184D01*
X0022835Y0047411D01*
X0022835Y0052281D01*
X0024746Y0054192D01*
X0031648Y0054192D01*
X0033760Y0052080D01*
X0038675Y0052080D01*
X0036708Y0054072D02*
X0034348Y0054072D01*
X0033871Y0054549D01*
X0033710Y0053827D02*
X0035215Y0053827D01*
X0035215Y0053437D02*
X0035373Y0053280D01*
X0034257Y0053280D01*
X0032848Y0054689D01*
X0032146Y0055392D01*
X0031116Y0055392D01*
X0031116Y0056416D01*
X0032872Y0056416D01*
X0033236Y0056780D01*
X0035371Y0056780D01*
X0035215Y0056624D01*
X0035215Y0055406D01*
X0035590Y0055031D01*
X0035215Y0054656D01*
X0035215Y0053437D01*
X0035215Y0054425D02*
X0033112Y0054425D01*
X0032513Y0055024D02*
X0035583Y0055024D01*
X0035215Y0055622D02*
X0031116Y0055622D01*
X0031116Y0056221D02*
X0035215Y0056221D01*
X0036691Y0057980D02*
X0028559Y0057980D01*
X0031116Y0059213D02*
X0035345Y0059213D01*
X0035215Y0059812D02*
X0031116Y0059812D01*
X0030820Y0060410D02*
X0035215Y0060410D01*
X0036668Y0059836D02*
X0036668Y0061045D01*
X0036668Y0061943D01*
X0036668Y0061045D02*
X0021268Y0061045D01*
X0023788Y0061607D02*
X0025621Y0061607D01*
X0025182Y0062206D02*
X0024226Y0062206D01*
X0024226Y0062804D02*
X0025182Y0062804D01*
X0025182Y0063403D02*
X0024226Y0063403D01*
X0024226Y0064001D02*
X0025182Y0064001D01*
X0025182Y0064600D02*
X0024226Y0064600D01*
X0024226Y0065198D02*
X0025182Y0065198D01*
X0025182Y0065797D02*
X0024226Y0065797D01*
X0024226Y0066395D02*
X0025182Y0066395D01*
X0025182Y0066994D02*
X0024226Y0066994D01*
X0028694Y0063920D02*
X0040610Y0063920D01*
X0040654Y0063890D02*
X0051260Y0063890D01*
X0051971Y0064601D01*
X0053136Y0063403D02*
X0053668Y0063403D01*
X0053402Y0063669D02*
X0054250Y0062821D01*
X0055552Y0062821D01*
X0055552Y0062452D01*
X0055509Y0062452D01*
X0055440Y0062383D01*
X0055344Y0062369D01*
X0055097Y0062039D01*
X0054806Y0061749D01*
X0054806Y0061651D01*
X0054723Y0061540D01*
X0054405Y0061858D01*
X0042824Y0061858D01*
X0042297Y0061331D01*
X0042297Y0058878D01*
X0041981Y0059194D01*
X0041945Y0059194D01*
X0042094Y0059343D01*
X0042094Y0060561D01*
X0041719Y0060936D01*
X0042094Y0061311D01*
X0042094Y0062530D01*
X0041934Y0062690D01*
X0051758Y0062690D01*
X0052003Y0062936D01*
X0052670Y0062936D01*
X0053402Y0063669D01*
X0051872Y0062804D02*
X0055552Y0062804D01*
X0055222Y0062206D02*
X0042094Y0062206D01*
X0042094Y0061607D02*
X0042574Y0061607D01*
X0042297Y0061009D02*
X0041792Y0061009D01*
X0042094Y0060410D02*
X0042297Y0060410D01*
X0042297Y0059812D02*
X0042094Y0059812D01*
X0041965Y0059213D02*
X0042297Y0059213D01*
X0041484Y0057994D02*
X0045195Y0054283D01*
X0055421Y0054283D01*
X0056273Y0055135D01*
X0058341Y0054053D02*
X0062312Y0058023D01*
X0065729Y0058023D01*
X0066899Y0056819D02*
X0076533Y0056819D01*
X0076872Y0056221D02*
X0063748Y0056221D01*
X0063748Y0055622D02*
X0075526Y0055622D01*
X0075057Y0055024D02*
X0063380Y0055024D01*
X0063748Y0054425D02*
X0075057Y0054425D01*
X0075057Y0053827D02*
X0063748Y0053827D01*
X0063553Y0056819D02*
X0064559Y0056819D01*
X0067416Y0057418D02*
X0075935Y0057418D01*
X0075336Y0058016D02*
X0067416Y0058016D01*
X0067416Y0058615D02*
X0074738Y0058615D01*
X0075099Y0059951D02*
X0078072Y0056977D01*
X0080640Y0055622D02*
X0082091Y0055622D01*
X0082091Y0055024D02*
X0081109Y0055024D01*
X0081109Y0054425D02*
X0082091Y0054425D01*
X0082091Y0053827D02*
X0081109Y0053827D01*
X0081109Y0053228D02*
X0082091Y0053228D01*
X0081576Y0052996D02*
X0081576Y0052996D01*
X0081576Y0052996D01*
X0081943Y0052630D02*
X0082562Y0052630D01*
X0082541Y0052031D02*
X0089637Y0052031D01*
X0089637Y0051433D02*
X0083140Y0051433D01*
X0083738Y0050834D02*
X0089637Y0050834D01*
X0089463Y0050236D02*
X0087890Y0050236D01*
X0088199Y0049637D02*
X0089155Y0049637D01*
X0089155Y0049039D02*
X0088199Y0049039D01*
X0088199Y0048440D02*
X0089155Y0048440D01*
X0089155Y0047842D02*
X0088199Y0047842D01*
X0088199Y0047243D02*
X0089155Y0047243D01*
X0089155Y0046645D02*
X0088199Y0046645D01*
X0088199Y0046046D02*
X0089155Y0046046D01*
X0089155Y0045448D02*
X0088199Y0045448D01*
X0088118Y0044849D02*
X0089235Y0044849D01*
X0087854Y0044251D02*
X0112168Y0044251D01*
X0112168Y0043652D02*
X0087859Y0043652D01*
X0090348Y0043054D02*
X0091730Y0043054D01*
X0091517Y0042455D02*
X0090561Y0042455D01*
X0090561Y0041857D02*
X0091517Y0041857D01*
X0091517Y0041258D02*
X0090561Y0041258D01*
X0090561Y0040659D02*
X0091517Y0040659D01*
X0091517Y0040061D02*
X0090561Y0040061D01*
X0090561Y0039462D02*
X0091517Y0039462D01*
X0091517Y0038864D02*
X0090561Y0038864D01*
X0090561Y0038265D02*
X0091517Y0038265D01*
X0091693Y0037667D02*
X0090385Y0037667D01*
X0095538Y0034674D02*
X0082299Y0034674D01*
X0082299Y0034076D02*
X0095384Y0034076D01*
X0095384Y0033477D02*
X0082178Y0033477D01*
X0082299Y0035273D02*
X0128165Y0035273D01*
X0132289Y0037068D02*
X0147073Y0037068D01*
X0147073Y0036470D02*
X0132887Y0036470D01*
X0133486Y0035871D02*
X0147073Y0035871D01*
X0144307Y0035273D02*
X0136976Y0035273D01*
X0137014Y0034674D02*
X0144269Y0034674D01*
X0144269Y0034076D02*
X0137014Y0034076D01*
X0137014Y0033477D02*
X0144269Y0033477D01*
X0144269Y0032879D02*
X0137014Y0032879D01*
X0137014Y0032280D02*
X0144269Y0032280D01*
X0144269Y0031682D02*
X0137014Y0031682D01*
X0137014Y0031083D02*
X0144269Y0031083D01*
X0144269Y0030485D02*
X0137014Y0030485D01*
X0137014Y0029886D02*
X0144269Y0029886D01*
X0144269Y0029288D02*
X0137014Y0029288D01*
X0137014Y0028689D02*
X0144269Y0028689D01*
X0144269Y0028091D02*
X0137416Y0028091D01*
X0131690Y0037667D02*
X0147073Y0037667D01*
X0147073Y0038265D02*
X0131092Y0038265D01*
X0133630Y0039462D02*
X0134659Y0039462D01*
X0134623Y0040061D02*
X0133667Y0040061D01*
X0133667Y0040659D02*
X0134623Y0040659D01*
X0134623Y0041258D02*
X0133667Y0041258D01*
X0133667Y0041857D02*
X0134623Y0041857D01*
X0134623Y0042455D02*
X0133667Y0042455D01*
X0133667Y0043054D02*
X0134623Y0043054D01*
X0134623Y0043652D02*
X0133667Y0043652D01*
X0133667Y0044251D02*
X0134623Y0044251D01*
X0134623Y0044849D02*
X0133667Y0044849D01*
X0133667Y0045448D02*
X0134623Y0045448D01*
X0134623Y0046046D02*
X0133667Y0046046D01*
X0133667Y0046645D02*
X0134623Y0046645D01*
X0134623Y0047243D02*
X0133667Y0047243D01*
X0133157Y0047842D02*
X0135133Y0047842D01*
X0144134Y0049039D02*
X0169992Y0049039D01*
X0169992Y0049637D02*
X0167797Y0049637D01*
X0169242Y0050236D02*
X0169992Y0050236D01*
X0169992Y0050834D02*
X0169844Y0050834D01*
X0165218Y0049637D02*
X0144733Y0049637D01*
X0145331Y0050236D02*
X0163773Y0050236D01*
X0163171Y0050834D02*
X0145930Y0050834D01*
X0146528Y0051433D02*
X0162573Y0051433D01*
X0162228Y0052031D02*
X0147127Y0052031D01*
X0147725Y0052630D02*
X0161980Y0052630D01*
X0161732Y0053228D02*
X0148324Y0053228D01*
X0148923Y0053827D02*
X0161670Y0053827D01*
X0161670Y0054425D02*
X0149521Y0054425D01*
X0150120Y0055024D02*
X0161670Y0055024D01*
X0161804Y0055622D02*
X0152546Y0055622D01*
X0152564Y0056221D02*
X0162052Y0056221D01*
X0162299Y0056819D02*
X0152564Y0056819D01*
X0152564Y0057418D02*
X0162746Y0057418D01*
X0163345Y0058016D02*
X0152564Y0058016D01*
X0152564Y0058615D02*
X0164192Y0058615D01*
X0168823Y0058615D02*
X0169992Y0058615D01*
X0169992Y0059213D02*
X0152564Y0059213D01*
X0152564Y0059812D02*
X0169992Y0059812D01*
X0169992Y0060410D02*
X0152564Y0060410D01*
X0152564Y0061009D02*
X0169992Y0061009D01*
X0169992Y0061607D02*
X0152564Y0061607D01*
X0152564Y0062206D02*
X0169992Y0062206D01*
X0169992Y0062804D02*
X0152564Y0062804D01*
X0152564Y0063403D02*
X0165251Y0063403D01*
X0163806Y0064001D02*
X0139555Y0064001D01*
X0139555Y0064600D02*
X0163185Y0064600D01*
X0162586Y0065198D02*
X0139555Y0065198D01*
X0139555Y0065797D02*
X0162233Y0065797D01*
X0161985Y0066395D02*
X0139555Y0066395D01*
X0139555Y0066994D02*
X0161737Y0066994D01*
X0161670Y0067593D02*
X0139555Y0067593D01*
X0139555Y0068191D02*
X0161670Y0068191D01*
X0161670Y0068790D02*
X0139555Y0068790D01*
X0139555Y0069388D02*
X0142848Y0069388D01*
X0142656Y0069580D02*
X0143184Y0069052D01*
X0145898Y0069052D01*
X0146425Y0069580D01*
X0146425Y0071130D01*
X0146429Y0071134D01*
X0146429Y0074826D01*
X0147672Y0074826D01*
X0148199Y0075353D01*
X0148199Y0080232D01*
X0147672Y0080759D01*
X0142674Y0080759D01*
X0142147Y0080232D01*
X0142147Y0075353D01*
X0142629Y0074871D01*
X0142629Y0073116D01*
X0142003Y0073116D01*
X0141475Y0072589D01*
X0141475Y0070465D01*
X0142003Y0069938D01*
X0142656Y0069938D01*
X0142656Y0069580D01*
X0141954Y0069987D02*
X0140237Y0069987D01*
X0140716Y0070585D02*
X0141475Y0070585D01*
X0141475Y0071184D02*
X0140716Y0071184D01*
X0140716Y0071782D02*
X0141475Y0071782D01*
X0141475Y0072381D02*
X0140716Y0072381D01*
X0140326Y0072979D02*
X0141866Y0072979D01*
X0142629Y0073578D02*
X0139432Y0073578D01*
X0135870Y0073578D02*
X0120300Y0073578D01*
X0119701Y0074176D02*
X0128166Y0074176D01*
X0127974Y0074369D02*
X0128501Y0073841D01*
X0133498Y0073841D01*
X0134025Y0074369D01*
X0134025Y0079248D01*
X0133498Y0079775D01*
X0133259Y0079775D01*
X0133259Y0080962D01*
X0133890Y0080962D01*
X0134417Y0081489D01*
X0134417Y0083613D01*
X0133890Y0084140D01*
X0133236Y0084140D01*
X0133236Y0084498D01*
X0132709Y0085026D01*
X0129995Y0085026D01*
X0129467Y0084498D01*
X0129467Y0083263D01*
X0129459Y0083255D01*
X0129459Y0079775D01*
X0128501Y0079775D01*
X0127974Y0079248D01*
X0127974Y0074369D01*
X0127974Y0074775D02*
X0119103Y0074775D01*
X0118504Y0075373D02*
X0127974Y0075373D01*
X0127974Y0075972D02*
X0117906Y0075972D01*
X0117307Y0076570D02*
X0127974Y0076570D01*
X0127974Y0077169D02*
X0116709Y0077169D01*
X0115193Y0078964D02*
X0114913Y0078964D01*
X0115193Y0079563D02*
X0114315Y0079563D01*
X0114237Y0080161D02*
X0115193Y0080161D01*
X0115193Y0080760D02*
X0114237Y0080760D01*
X0114237Y0081358D02*
X0115193Y0081358D01*
X0115193Y0081957D02*
X0114237Y0081957D01*
X0114237Y0082555D02*
X0115193Y0082555D01*
X0115193Y0083154D02*
X0114237Y0083154D01*
X0114237Y0083752D02*
X0115193Y0083752D01*
X0115193Y0084351D02*
X0114237Y0084351D01*
X0114098Y0084949D02*
X0115333Y0084949D01*
X0121972Y0084949D02*
X0129918Y0084949D01*
X0129467Y0084351D02*
X0122111Y0084351D01*
X0122111Y0083752D02*
X0129467Y0083752D01*
X0129459Y0083154D02*
X0122111Y0083154D01*
X0122111Y0082555D02*
X0129459Y0082555D01*
X0129459Y0081957D02*
X0122111Y0081957D01*
X0122111Y0081358D02*
X0129459Y0081358D01*
X0129459Y0080760D02*
X0122111Y0080760D01*
X0122111Y0080161D02*
X0129459Y0080161D01*
X0128288Y0079563D02*
X0122111Y0079563D01*
X0122111Y0078964D02*
X0127974Y0078964D01*
X0127974Y0078366D02*
X0122111Y0078366D01*
X0122111Y0077767D02*
X0127974Y0077767D01*
X0133259Y0080161D02*
X0136799Y0080161D01*
X0136884Y0080076D02*
X0136357Y0080603D01*
X0136357Y0080962D01*
X0135703Y0080962D01*
X0135176Y0081489D01*
X0135176Y0083613D01*
X0135703Y0084140D01*
X0136357Y0084140D01*
X0136357Y0084498D01*
X0136884Y0085026D01*
X0139598Y0085026D01*
X0140126Y0084498D01*
X0140126Y0080603D01*
X0139598Y0080076D01*
X0136884Y0080076D01*
X0136357Y0080760D02*
X0133259Y0080760D01*
X0134286Y0081358D02*
X0135307Y0081358D01*
X0135176Y0081957D02*
X0134417Y0081957D01*
X0134417Y0082555D02*
X0135176Y0082555D01*
X0135176Y0083154D02*
X0134417Y0083154D01*
X0134277Y0083752D02*
X0135316Y0083752D01*
X0136357Y0084351D02*
X0133236Y0084351D01*
X0132785Y0084949D02*
X0136808Y0084949D01*
X0139675Y0084949D02*
X0142147Y0084949D01*
X0142147Y0084351D02*
X0140126Y0084351D01*
X0140126Y0083752D02*
X0142147Y0083752D01*
X0142147Y0083154D02*
X0140126Y0083154D01*
X0140126Y0082555D02*
X0142147Y0082555D01*
X0142147Y0082243D02*
X0142674Y0081715D01*
X0147672Y0081715D01*
X0148199Y0082243D01*
X0148199Y0087122D01*
X0147672Y0087649D01*
X0142674Y0087649D01*
X0142147Y0087122D01*
X0142147Y0082243D01*
X0142433Y0081957D02*
X0140126Y0081957D01*
X0140126Y0081358D02*
X0161670Y0081358D01*
X0161670Y0081957D02*
X0147913Y0081957D01*
X0148199Y0082555D02*
X0161670Y0082555D01*
X0161792Y0083154D02*
X0148199Y0083154D01*
X0148199Y0083752D02*
X0162040Y0083752D01*
X0162288Y0084351D02*
X0148199Y0084351D01*
X0148199Y0084949D02*
X0162719Y0084949D01*
X0163317Y0085548D02*
X0148199Y0085548D01*
X0148199Y0086146D02*
X0164125Y0086146D01*
X0168890Y0086146D02*
X0169992Y0086146D01*
X0169992Y0085548D02*
X0169698Y0085548D01*
X0169992Y0086745D02*
X0148199Y0086745D01*
X0147977Y0087343D02*
X0169992Y0087343D01*
X0169992Y0087942D02*
X0005469Y0087942D01*
X0005469Y0088540D02*
X0169992Y0088540D01*
X0169992Y0089139D02*
X0005469Y0089139D01*
X0005469Y0089737D02*
X0169992Y0089737D01*
X0169992Y0090336D02*
X0005469Y0090336D01*
X0005469Y0090934D02*
X0169992Y0090934D01*
X0169992Y0091533D02*
X0005469Y0091533D01*
X0005469Y0092131D02*
X0169992Y0092131D01*
X0169992Y0092730D02*
X0005469Y0092730D01*
X0005469Y0093328D02*
X0169992Y0093328D01*
X0169992Y0093927D02*
X0005469Y0093927D01*
X0005469Y0094526D02*
X0169992Y0094526D01*
X0169992Y0095124D02*
X0005469Y0095124D01*
X0005469Y0095723D02*
X0169992Y0095723D01*
X0169992Y0096321D02*
X0005469Y0096321D01*
X0005469Y0096920D02*
X0169992Y0096920D01*
X0169992Y0097518D02*
X0005469Y0097518D01*
X0005469Y0098117D02*
X0169992Y0098117D01*
X0169992Y0098715D02*
X0005469Y0098715D01*
X0005469Y0099314D02*
X0169992Y0099314D01*
X0169992Y0099912D02*
X0005469Y0099912D01*
X0005469Y0100511D02*
X0169992Y0100511D01*
X0169992Y0101109D02*
X0005469Y0101109D01*
X0005469Y0101708D02*
X0169992Y0101708D01*
X0169992Y0102306D02*
X0005469Y0102306D01*
X0005469Y0102905D02*
X0169992Y0102905D01*
X0169992Y0103503D02*
X0005469Y0103503D01*
X0005469Y0104102D02*
X0169992Y0104102D01*
X0169992Y0104700D02*
X0005469Y0104700D01*
X0005469Y0087343D02*
X0142368Y0087343D01*
X0142147Y0086745D02*
X0005469Y0086745D01*
X0005469Y0074775D02*
X0005522Y0074775D01*
X0005469Y0064001D02*
X0018292Y0064001D01*
X0018292Y0063403D02*
X0005469Y0063403D01*
X0005469Y0062804D02*
X0008442Y0062804D01*
X0007009Y0062206D02*
X0005469Y0062206D01*
X0005469Y0061607D02*
X0006411Y0061607D01*
X0005835Y0061009D02*
X0005469Y0061009D01*
X0005469Y0060410D02*
X0005587Y0060410D01*
X0010293Y0062804D02*
X0018292Y0062804D01*
X0018292Y0062206D02*
X0011725Y0062206D01*
X0012324Y0061607D02*
X0018731Y0061607D01*
X0023930Y0060410D02*
X0025479Y0060410D01*
X0025182Y0059812D02*
X0024226Y0059812D01*
X0024226Y0059213D02*
X0025182Y0059213D01*
X0025182Y0058615D02*
X0024226Y0058615D01*
X0024226Y0058016D02*
X0025182Y0058016D01*
X0025182Y0057418D02*
X0024226Y0057418D01*
X0024226Y0056819D02*
X0025182Y0056819D01*
X0025182Y0056221D02*
X0024226Y0056221D01*
X0024226Y0055622D02*
X0025182Y0055622D01*
X0024981Y0052730D02*
X0024981Y0048425D01*
X0025508Y0047898D01*
X0030506Y0047898D01*
X0031033Y0048425D01*
X0031033Y0052992D01*
X0031151Y0052992D01*
X0033263Y0050880D01*
X0035377Y0050880D01*
X0035215Y0050719D01*
X0035215Y0049500D01*
X0035590Y0049125D01*
X0035215Y0048750D01*
X0035215Y0047532D01*
X0035365Y0047382D01*
X0029328Y0047382D01*
X0028888Y0046942D01*
X0025508Y0046942D01*
X0024981Y0046415D01*
X0024981Y0044535D01*
X0022683Y0044535D01*
X0021863Y0043715D01*
X0021863Y0041460D01*
X0019881Y0041460D01*
X0019353Y0040933D01*
X0019353Y0035936D01*
X0019881Y0035408D01*
X0021964Y0035408D01*
X0021964Y0034252D01*
X0021909Y0034307D01*
X0019513Y0034307D01*
X0019513Y0034547D01*
X0018986Y0035074D01*
X0018678Y0035074D01*
X0019228Y0035624D01*
X0019228Y0037022D01*
X0018731Y0037519D01*
X0018731Y0044420D01*
X0019294Y0044984D01*
X0022105Y0044984D01*
X0022808Y0045687D01*
X0024035Y0046914D01*
X0024035Y0051784D01*
X0024981Y0052730D01*
X0024981Y0052630D02*
X0024881Y0052630D01*
X0024981Y0052031D02*
X0024283Y0052031D01*
X0024035Y0051433D02*
X0024981Y0051433D01*
X0024981Y0050834D02*
X0024035Y0050834D01*
X0024551Y0050957D02*
X0031698Y0050957D01*
X0031033Y0050834D02*
X0035331Y0050834D01*
X0035215Y0050236D02*
X0031033Y0050236D01*
X0031033Y0049637D02*
X0035215Y0049637D01*
X0035504Y0049039D02*
X0031033Y0049039D01*
X0031033Y0048440D02*
X0035215Y0048440D01*
X0035215Y0047842D02*
X0024035Y0047842D01*
X0024035Y0048440D02*
X0024981Y0048440D01*
X0024981Y0049039D02*
X0024035Y0049039D01*
X0024035Y0049637D02*
X0024981Y0049637D01*
X0024981Y0050236D02*
X0024035Y0050236D01*
X0029719Y0049280D02*
X0030818Y0048180D01*
X0036701Y0048180D01*
X0036714Y0046182D02*
X0029825Y0046182D01*
X0028108Y0044465D01*
X0024981Y0044849D02*
X0019160Y0044849D01*
X0018731Y0044251D02*
X0022399Y0044251D01*
X0021863Y0043652D02*
X0018731Y0043652D01*
X0018731Y0043054D02*
X0021863Y0043054D01*
X0021863Y0042455D02*
X0018731Y0042455D01*
X0018731Y0041857D02*
X0021863Y0041857D01*
X0019678Y0041258D02*
X0018731Y0041258D01*
X0018731Y0040659D02*
X0019353Y0040659D01*
X0019353Y0040061D02*
X0018731Y0040061D01*
X0018731Y0039462D02*
X0019353Y0039462D01*
X0019353Y0038864D02*
X0018731Y0038864D01*
X0018731Y0038265D02*
X0019353Y0038265D01*
X0019353Y0037667D02*
X0018731Y0037667D01*
X0019182Y0037068D02*
X0019353Y0037068D01*
X0019353Y0036470D02*
X0019228Y0036470D01*
X0019228Y0035871D02*
X0019418Y0035871D01*
X0018877Y0035273D02*
X0021964Y0035273D01*
X0021964Y0034674D02*
X0019386Y0034674D01*
X0015662Y0032588D02*
X0012859Y0035391D01*
X0012859Y0042137D01*
X0013714Y0042992D01*
X0022569Y0045448D02*
X0024981Y0045448D01*
X0024981Y0046046D02*
X0023167Y0046046D01*
X0023766Y0046645D02*
X0025211Y0046645D01*
X0024035Y0047243D02*
X0029189Y0047243D01*
X0031033Y0051433D02*
X0032710Y0051433D01*
X0032112Y0052031D02*
X0031033Y0052031D01*
X0031033Y0052630D02*
X0031513Y0052630D01*
X0036701Y0057994D02*
X0041484Y0057994D01*
X0045113Y0051953D02*
X0045113Y0050177D01*
X0046525Y0048765D01*
X0046525Y0048173D01*
X0046812Y0049815D02*
X0048453Y0048173D01*
X0050458Y0048135D02*
X0067537Y0031056D01*
X0063253Y0031654D02*
X0063253Y0030308D01*
X0063253Y0031654D02*
X0059097Y0035811D01*
X0057553Y0033515D02*
X0057553Y0031021D01*
X0057553Y0033515D02*
X0054821Y0036246D01*
X0054821Y0040206D01*
X0058433Y0041857D02*
X0059122Y0041857D01*
X0059122Y0041614D02*
X0059121Y0041168D01*
X0055300Y0044990D01*
X0055387Y0045077D01*
X0055762Y0044702D01*
X0056981Y0044702D01*
X0057842Y0045563D01*
X0057842Y0046670D01*
X0058837Y0046670D01*
X0058837Y0045563D01*
X0059129Y0045272D01*
X0059123Y0042113D01*
X0059122Y0042112D01*
X0059122Y0041614D01*
X0059121Y0041258D02*
X0059031Y0041258D01*
X0059123Y0042455D02*
X0057834Y0042455D01*
X0057236Y0043054D02*
X0059125Y0043054D01*
X0059126Y0043652D02*
X0056637Y0043652D01*
X0056039Y0044251D02*
X0059127Y0044251D01*
X0059128Y0044849D02*
X0057128Y0044849D01*
X0057726Y0045448D02*
X0058953Y0045448D01*
X0058837Y0046046D02*
X0057842Y0046046D01*
X0057842Y0046645D02*
X0058837Y0046645D01*
X0058359Y0048096D02*
X0058359Y0043812D01*
X0055615Y0044849D02*
X0055440Y0044849D01*
X0060330Y0046158D02*
X0060322Y0041615D01*
X0068678Y0041614D01*
X0068678Y0040065D01*
X0073312Y0040065D01*
X0073312Y0029449D01*
X0077105Y0029449D01*
X0077105Y0021465D01*
X0078305Y0024500D02*
X0080919Y0024500D01*
X0080919Y0025098D02*
X0078305Y0025098D01*
X0078305Y0025697D02*
X0080919Y0025697D01*
X0081222Y0026295D02*
X0078305Y0026295D01*
X0084852Y0028091D02*
X0095384Y0028091D01*
X0095384Y0028689D02*
X0084852Y0028689D01*
X0084852Y0029288D02*
X0095384Y0029288D01*
X0095384Y0029886D02*
X0084852Y0029886D01*
X0084852Y0030485D02*
X0095384Y0030485D01*
X0095384Y0031083D02*
X0084852Y0031083D01*
X0084852Y0031682D02*
X0095384Y0031682D01*
X0095384Y0032280D02*
X0084852Y0032280D01*
X0084577Y0032879D02*
X0095384Y0032879D01*
X0097275Y0037667D02*
X0110787Y0037667D01*
X0110611Y0038265D02*
X0097451Y0038265D01*
X0097451Y0038864D02*
X0110611Y0038864D01*
X0110611Y0041857D02*
X0097451Y0041857D01*
X0097451Y0042455D02*
X0110611Y0042455D01*
X0110824Y0043054D02*
X0097237Y0043054D01*
X0098598Y0044402D02*
X0098071Y0044929D01*
X0098071Y0049927D01*
X0098598Y0050454D01*
X0103477Y0050454D01*
X0104005Y0049927D01*
X0104005Y0044929D01*
X0103477Y0044402D01*
X0098598Y0044402D01*
X0098151Y0044849D02*
X0095008Y0044849D01*
X0095088Y0045448D02*
X0098071Y0045448D01*
X0098071Y0046046D02*
X0095088Y0046046D01*
X0095088Y0046645D02*
X0098071Y0046645D01*
X0098071Y0047243D02*
X0095088Y0047243D01*
X0095088Y0047842D02*
X0098071Y0047842D01*
X0098071Y0048440D02*
X0095088Y0048440D01*
X0095088Y0049039D02*
X0098071Y0049039D01*
X0098071Y0049637D02*
X0095088Y0049637D01*
X0094780Y0050236D02*
X0098379Y0050236D01*
X0103696Y0050236D02*
X0105269Y0050236D01*
X0104960Y0049637D02*
X0104005Y0049637D01*
X0104005Y0049039D02*
X0104960Y0049039D01*
X0104960Y0048440D02*
X0104005Y0048440D01*
X0104005Y0047842D02*
X0104960Y0047842D01*
X0104960Y0047243D02*
X0104005Y0047243D01*
X0104005Y0046645D02*
X0104960Y0046645D01*
X0104960Y0046046D02*
X0104005Y0046046D01*
X0104005Y0045448D02*
X0104960Y0045448D01*
X0105041Y0044849D02*
X0103924Y0044849D01*
X0105996Y0050834D02*
X0092225Y0050834D01*
X0092225Y0051433D02*
X0105996Y0051433D01*
X0105996Y0052031D02*
X0092225Y0052031D01*
X0092225Y0052630D02*
X0105792Y0052630D01*
X0105321Y0053228D02*
X0092225Y0053228D01*
X0091800Y0053827D02*
X0105321Y0053827D01*
X0105321Y0054425D02*
X0091201Y0054425D01*
X0090790Y0055024D02*
X0105321Y0055024D01*
X0105321Y0055622D02*
X0090790Y0055622D01*
X0090790Y0056221D02*
X0105321Y0056221D01*
X0105321Y0056819D02*
X0090790Y0056819D01*
X0090790Y0057418D02*
X0105321Y0057418D01*
X0105321Y0058016D02*
X0090790Y0058016D01*
X0090790Y0058615D02*
X0105321Y0058615D01*
X0105321Y0059213D02*
X0090790Y0059213D01*
X0090790Y0059812D02*
X0105321Y0059812D01*
X0105480Y0060410D02*
X0090632Y0060410D01*
X0075099Y0059951D02*
X0062276Y0059951D01*
X0060354Y0059938D02*
X0056919Y0059938D01*
X0056830Y0059849D01*
X0054774Y0061607D02*
X0054656Y0061607D01*
X0060289Y0063878D02*
X0064782Y0063878D01*
X0064822Y0063403D02*
X0061779Y0063403D01*
X0062292Y0061924D02*
X0065712Y0061924D01*
X0049484Y0051915D02*
X0048491Y0050922D01*
X0048491Y0050120D01*
X0046812Y0049815D02*
X0046812Y0051457D01*
X0047289Y0051934D01*
X0042591Y0050139D02*
X0031034Y0038582D01*
X0029209Y0038582D01*
X0033259Y0038873D02*
X0033259Y0036475D01*
X0031492Y0034707D01*
X0028984Y0034707D01*
X0027274Y0032997D01*
X0027274Y0030432D01*
X0032803Y0030147D02*
X0034628Y0031971D01*
X0034628Y0038206D01*
X0042607Y0046185D01*
X0044547Y0046175D02*
X0044547Y0043404D01*
X0038444Y0037301D01*
X0038444Y0030538D01*
X0039644Y0032799D02*
X0039644Y0036804D01*
X0045044Y0042204D01*
X0045747Y0042907D01*
X0045747Y0044875D01*
X0045920Y0044702D01*
X0047138Y0044702D01*
X0047300Y0044864D01*
X0047300Y0041656D01*
X0043099Y0037454D01*
X0043099Y0032799D01*
X0041757Y0032799D01*
X0041406Y0032449D01*
X0041056Y0032799D01*
X0039644Y0032799D01*
X0039644Y0032879D02*
X0043099Y0032879D01*
X0043099Y0033477D02*
X0039644Y0033477D01*
X0039644Y0034076D02*
X0043099Y0034076D01*
X0043099Y0034674D02*
X0039644Y0034674D01*
X0039644Y0035273D02*
X0043099Y0035273D01*
X0043099Y0035871D02*
X0039644Y0035871D01*
X0039644Y0036470D02*
X0043099Y0036470D01*
X0043099Y0037068D02*
X0039908Y0037068D01*
X0040507Y0037667D02*
X0043311Y0037667D01*
X0043910Y0038265D02*
X0041105Y0038265D01*
X0041704Y0038864D02*
X0044508Y0038864D01*
X0045107Y0039462D02*
X0042303Y0039462D01*
X0042901Y0040061D02*
X0045705Y0040061D01*
X0046304Y0040659D02*
X0043500Y0040659D01*
X0044098Y0041258D02*
X0046902Y0041258D01*
X0046544Y0041737D02*
X0046544Y0046175D01*
X0047285Y0044849D02*
X0047300Y0044849D01*
X0047300Y0044251D02*
X0045747Y0044251D01*
X0045747Y0044849D02*
X0045772Y0044849D01*
X0045747Y0043652D02*
X0047300Y0043652D01*
X0047300Y0043054D02*
X0045747Y0043054D01*
X0045295Y0042455D02*
X0047300Y0042455D01*
X0047300Y0041857D02*
X0044697Y0041857D01*
X0048500Y0041159D02*
X0048500Y0046175D01*
X0050483Y0046223D02*
X0050483Y0036009D01*
X0047917Y0033443D01*
X0047917Y0021804D01*
X0044299Y0030115D02*
X0044299Y0036957D01*
X0048500Y0041159D01*
X0042559Y0048173D02*
X0033259Y0038873D01*
X0014337Y0031682D02*
X0012250Y0031682D01*
X0012848Y0031083D02*
X0014337Y0031083D01*
X0014337Y0030485D02*
X0013117Y0030485D01*
X0013365Y0029886D02*
X0014337Y0029886D01*
X0014337Y0029288D02*
X0013515Y0029288D01*
X0013515Y0028689D02*
X0014337Y0028689D01*
X0014337Y0028091D02*
X0013515Y0028091D01*
X0013358Y0027492D02*
X0014761Y0027492D01*
X0014726Y0026295D02*
X0012831Y0026295D01*
X0013110Y0026894D02*
X0021964Y0026894D01*
X0014337Y0025697D02*
X0012232Y0025697D01*
X0011516Y0025098D02*
X0014337Y0025098D01*
X0014337Y0024500D02*
X0005469Y0024500D01*
X0005469Y0025098D02*
X0007218Y0025098D01*
X0006502Y0025697D02*
X0005469Y0025697D01*
X0005469Y0026295D02*
X0005904Y0026295D01*
X0005625Y0026894D02*
X0005469Y0026894D01*
X0005469Y0023901D02*
X0014337Y0023901D01*
X0014337Y0023303D02*
X0005469Y0023303D01*
X0005469Y0022704D02*
X0014337Y0022704D01*
X0014337Y0022106D02*
X0005469Y0022106D01*
X0005469Y0021507D02*
X0014337Y0021507D01*
X0014337Y0020909D02*
X0005469Y0020909D01*
X0005469Y0020310D02*
X0014337Y0020310D01*
X0014667Y0019712D02*
X0005469Y0019712D01*
X0005469Y0019113D02*
X0015403Y0019113D01*
X0015403Y0018515D02*
X0005469Y0018515D01*
X0005469Y0017916D02*
X0015403Y0017916D01*
X0015718Y0017318D02*
X0005469Y0017318D01*
X0005469Y0016719D02*
X0074211Y0016719D01*
X0074211Y0016121D02*
X0005469Y0016121D01*
X0005469Y0015522D02*
X0074211Y0015522D01*
X0074211Y0014924D02*
X0005469Y0014924D01*
X0005469Y0014325D02*
X0074211Y0014325D01*
X0074211Y0013726D02*
X0005469Y0013726D01*
X0005469Y0013128D02*
X0074211Y0013128D01*
X0074211Y0012529D02*
X0005469Y0012529D01*
X0005469Y0011931D02*
X0074211Y0011931D01*
X0074717Y0011332D02*
X0005469Y0011332D01*
X0005469Y0030485D02*
X0005618Y0030485D01*
X0005469Y0031083D02*
X0005886Y0031083D01*
X0005469Y0031682D02*
X0006485Y0031682D01*
X0007177Y0032280D02*
X0005469Y0032280D01*
X0005469Y0032879D02*
X0012507Y0032879D01*
X0012507Y0033477D02*
X0005469Y0033477D01*
X0005469Y0034076D02*
X0012507Y0034076D01*
X0012507Y0034674D02*
X0005469Y0034674D01*
X0005469Y0035273D02*
X0012507Y0035273D01*
X0012816Y0035871D02*
X0005469Y0035871D01*
X0011558Y0032280D02*
X0012865Y0032280D01*
X0007398Y0055024D02*
X0005469Y0055024D01*
X0005469Y0055622D02*
X0006577Y0055622D01*
X0005978Y0056221D02*
X0005469Y0056221D01*
X0005469Y0056819D02*
X0005656Y0056819D01*
X0063459Y0049039D02*
X0081875Y0049039D01*
X0082265Y0048440D02*
X0080932Y0048440D01*
X0081109Y0047842D02*
X0082265Y0047842D01*
X0082265Y0047243D02*
X0081109Y0047243D01*
X0081109Y0046645D02*
X0082265Y0046645D01*
X0082265Y0046046D02*
X0081109Y0046046D01*
X0081109Y0045448D02*
X0082265Y0045448D01*
X0082345Y0044849D02*
X0081109Y0044849D01*
X0081109Y0044251D02*
X0085267Y0044251D01*
X0085271Y0043652D02*
X0081109Y0043652D01*
X0080778Y0043054D02*
X0084840Y0043054D01*
X0084627Y0042455D02*
X0069535Y0042455D01*
X0069878Y0041857D02*
X0084627Y0041857D01*
X0075387Y0043054D02*
X0067097Y0043054D01*
X0067097Y0043652D02*
X0075057Y0043652D01*
X0075057Y0044251D02*
X0066698Y0044251D01*
X0063748Y0049637D02*
X0081276Y0049637D01*
X0108583Y0050834D02*
X0118971Y0050834D01*
X0118373Y0051433D02*
X0108583Y0051433D01*
X0108583Y0052031D02*
X0117774Y0052031D01*
X0117176Y0052630D02*
X0113550Y0052630D01*
X0114020Y0053228D02*
X0116577Y0053228D01*
X0116122Y0053827D02*
X0114020Y0053827D01*
X0114020Y0054425D02*
X0116122Y0054425D01*
X0116122Y0055024D02*
X0114020Y0055024D01*
X0114020Y0055622D02*
X0116122Y0055622D01*
X0116122Y0056221D02*
X0114020Y0056221D01*
X0114020Y0056819D02*
X0116122Y0056819D01*
X0116122Y0057418D02*
X0114020Y0057418D01*
X0114020Y0058016D02*
X0116122Y0058016D01*
X0116122Y0058615D02*
X0114020Y0058615D01*
X0114020Y0059213D02*
X0116122Y0059213D01*
X0116122Y0059812D02*
X0114020Y0059812D01*
X0113861Y0060410D02*
X0116122Y0060410D01*
X0127482Y0066395D02*
X0135755Y0066395D01*
X0135755Y0065797D02*
X0128080Y0065797D01*
X0128679Y0065198D02*
X0135755Y0065198D01*
X0135755Y0064600D02*
X0129277Y0064600D01*
X0129876Y0064001D02*
X0135755Y0064001D01*
X0134623Y0063403D02*
X0133667Y0063403D01*
X0133667Y0062804D02*
X0134623Y0062804D01*
X0134623Y0062206D02*
X0133667Y0062206D01*
X0133498Y0066952D02*
X0128501Y0066952D01*
X0127974Y0067479D01*
X0127974Y0072358D01*
X0128501Y0072885D01*
X0133498Y0072885D01*
X0134025Y0072358D01*
X0134025Y0067479D01*
X0133498Y0066952D01*
X0133541Y0066994D02*
X0135755Y0066994D01*
X0135755Y0067593D02*
X0134025Y0067593D01*
X0134025Y0068191D02*
X0135755Y0068191D01*
X0135755Y0068790D02*
X0134025Y0068790D01*
X0134025Y0069388D02*
X0135755Y0069388D01*
X0135755Y0069987D02*
X0134025Y0069987D01*
X0134025Y0070585D02*
X0135755Y0070585D01*
X0135755Y0071184D02*
X0134025Y0071184D01*
X0134025Y0071782D02*
X0135767Y0071782D01*
X0135767Y0072381D02*
X0134003Y0072381D01*
X0133833Y0074176D02*
X0142629Y0074176D01*
X0142629Y0074775D02*
X0134025Y0074775D01*
X0134025Y0075373D02*
X0142147Y0075373D01*
X0142147Y0075972D02*
X0134025Y0075972D01*
X0134025Y0076570D02*
X0142147Y0076570D01*
X0142147Y0077169D02*
X0134025Y0077169D01*
X0134025Y0077767D02*
X0142147Y0077767D01*
X0142147Y0078366D02*
X0134025Y0078366D01*
X0134025Y0078964D02*
X0142147Y0078964D01*
X0142147Y0079563D02*
X0133711Y0079563D01*
X0139684Y0080161D02*
X0142147Y0080161D01*
X0140126Y0080760D02*
X0161743Y0080760D01*
X0161991Y0080161D02*
X0148199Y0080161D01*
X0148199Y0079563D02*
X0162239Y0079563D01*
X0162600Y0078964D02*
X0148199Y0078964D01*
X0148199Y0078366D02*
X0163199Y0078366D01*
X0163839Y0077767D02*
X0148199Y0077767D01*
X0148199Y0077169D02*
X0165284Y0077169D01*
X0167730Y0077169D02*
X0169992Y0077169D01*
X0169992Y0077767D02*
X0169175Y0077767D01*
X0169816Y0078366D02*
X0169992Y0078366D01*
X0169992Y0076570D02*
X0148199Y0076570D01*
X0148199Y0075972D02*
X0169992Y0075972D01*
X0169992Y0075373D02*
X0148199Y0075373D01*
X0146429Y0074775D02*
X0169992Y0074775D01*
X0169992Y0074176D02*
X0146429Y0074176D01*
X0146429Y0073578D02*
X0169992Y0073578D01*
X0169992Y0072979D02*
X0146429Y0072979D01*
X0146429Y0072381D02*
X0164158Y0072381D01*
X0163331Y0071782D02*
X0146429Y0071782D01*
X0146429Y0071184D02*
X0162732Y0071184D01*
X0162294Y0070585D02*
X0146425Y0070585D01*
X0146425Y0069987D02*
X0162046Y0069987D01*
X0161798Y0069388D02*
X0146233Y0069388D01*
X0135767Y0072979D02*
X0120898Y0072979D01*
X0121497Y0072381D02*
X0127996Y0072381D01*
X0127974Y0071782D02*
X0122095Y0071782D01*
X0122694Y0071184D02*
X0127974Y0071184D01*
X0127974Y0070585D02*
X0123292Y0070585D01*
X0123891Y0069987D02*
X0127974Y0069987D01*
X0127974Y0069388D02*
X0124489Y0069388D01*
X0125088Y0068790D02*
X0127974Y0068790D01*
X0127974Y0068191D02*
X0125686Y0068191D01*
X0126285Y0067593D02*
X0127974Y0067593D01*
X0128458Y0066994D02*
X0126883Y0066994D01*
X0143115Y0063403D02*
X0144071Y0063403D01*
X0144071Y0062804D02*
X0143115Y0062804D01*
X0143115Y0062206D02*
X0144071Y0062206D01*
X0144071Y0061607D02*
X0143115Y0061607D01*
X0143115Y0061009D02*
X0144071Y0061009D01*
X0144071Y0060410D02*
X0143115Y0060410D01*
X0143115Y0059812D02*
X0144071Y0059812D01*
X0144071Y0059213D02*
X0143115Y0059213D01*
X0143115Y0058615D02*
X0144071Y0058615D01*
X0144071Y0058016D02*
X0143115Y0058016D01*
X0143115Y0057418D02*
X0144071Y0057418D01*
X0144071Y0056819D02*
X0143115Y0056819D01*
X0143115Y0056221D02*
X0144071Y0056221D01*
X0144090Y0055622D02*
X0143097Y0055622D01*
X0134641Y0055622D02*
X0133648Y0055622D01*
X0133667Y0056221D02*
X0134623Y0056221D01*
X0117810Y0050236D02*
X0116236Y0050236D01*
X0116545Y0049637D02*
X0117501Y0049637D01*
X0117501Y0049039D02*
X0116545Y0049039D01*
X0116545Y0048440D02*
X0117501Y0048440D01*
X0117501Y0047842D02*
X0116545Y0047842D01*
X0116545Y0047243D02*
X0117501Y0047243D01*
X0117501Y0046645D02*
X0116545Y0046645D01*
X0116545Y0046046D02*
X0117501Y0046046D01*
X0117501Y0045448D02*
X0116545Y0045448D01*
X0116465Y0044849D02*
X0117581Y0044849D01*
X0117714Y0043054D02*
X0116332Y0043054D01*
X0116545Y0042455D02*
X0117501Y0042455D01*
X0117501Y0041857D02*
X0116545Y0041857D01*
X0116545Y0041258D02*
X0117501Y0041258D01*
X0117501Y0040659D02*
X0116545Y0040659D01*
X0116545Y0040061D02*
X0117501Y0040061D01*
X0117501Y0039462D02*
X0116545Y0039462D01*
X0116545Y0038864D02*
X0117501Y0038864D01*
X0117501Y0038265D02*
X0116545Y0038265D01*
X0116369Y0037667D02*
X0117677Y0037667D01*
X0112389Y0034674D02*
X0106202Y0034674D01*
X0106357Y0034076D02*
X0112234Y0034076D01*
X0112234Y0033477D02*
X0106357Y0033477D01*
X0106357Y0032879D02*
X0112234Y0032879D01*
X0112234Y0032280D02*
X0106357Y0032280D01*
X0106357Y0031682D02*
X0112234Y0031682D01*
X0112234Y0031083D02*
X0106357Y0031083D01*
X0106357Y0030485D02*
X0112234Y0030485D01*
X0112234Y0029886D02*
X0106357Y0029886D01*
X0106357Y0029288D02*
X0112234Y0029288D01*
X0112234Y0028689D02*
X0106357Y0028689D01*
X0106357Y0028091D02*
X0112234Y0028091D01*
X0112374Y0027492D02*
X0106217Y0027492D01*
X0095480Y0026295D02*
X0093439Y0026295D01*
X0093742Y0025697D02*
X0095480Y0025697D01*
X0110586Y0050236D02*
X0110920Y0050236D01*
X0167764Y0063403D02*
X0169992Y0063403D01*
X0169992Y0064001D02*
X0169209Y0064001D01*
X0169830Y0064600D02*
X0169992Y0064600D01*
X0169992Y0058016D02*
X0169670Y0058016D01*
X0169992Y0044849D02*
X0168790Y0044849D01*
X0169656Y0044251D02*
X0169992Y0044251D01*
X0169992Y0037068D02*
X0169857Y0037068D01*
X0169992Y0036470D02*
X0169259Y0036470D01*
X0169992Y0035871D02*
X0167830Y0035871D01*
X0169684Y0071782D02*
X0169992Y0071782D01*
X0169992Y0072381D02*
X0168857Y0072381D01*
D11*
X0020154Y0053850D03*
D12*
X0164005Y0014967D03*
X0163959Y0011050D03*
D13*
X0037799Y0076580D03*
D14*
X0051115Y0020554D03*
D15*
X0074676Y0032199D03*
D16*
X0073736Y0033881D03*
D17*
X0048615Y0059836D03*
D18*
X0049565Y0057808D03*
D19*
X0016485Y0033863D03*
D20*
X0016870Y0033353D03*
D21*
X0014743Y0034101D03*
D22*
X0050333Y0076407D03*
D23*
X0063311Y0042544D03*
D24*
X0067212Y0040404D03*
D25*
X0031136Y0057671D03*
D26*
X0036686Y0057984D03*
X0036686Y0059952D03*
X0036686Y0061921D03*
X0038655Y0061921D03*
X0040623Y0061921D03*
X0040623Y0059952D03*
X0038655Y0059952D03*
X0040623Y0063889D03*
X0040623Y0065858D03*
X0038655Y0065858D03*
X0036686Y0065858D03*
X0036686Y0067826D03*
X0038655Y0067826D03*
X0040623Y0067826D03*
X0042592Y0067826D03*
X0044560Y0067826D03*
X0046529Y0067826D03*
X0048497Y0067826D03*
X0050466Y0067826D03*
X0054403Y0067826D03*
X0056371Y0067826D03*
X0058340Y0067826D03*
X0060308Y0067826D03*
X0060308Y0065858D03*
X0062277Y0065858D03*
X0060308Y0063889D03*
X0058340Y0063889D03*
X0058340Y0061921D03*
X0060308Y0061921D03*
X0062277Y0061921D03*
X0062277Y0059952D03*
X0060308Y0059952D03*
X0060308Y0057984D03*
X0058340Y0057984D03*
X0058340Y0056015D03*
X0058340Y0054047D03*
X0060308Y0054047D03*
X0062277Y0054047D03*
X0062277Y0052078D03*
X0060308Y0052078D03*
X0058340Y0052078D03*
X0056371Y0050110D03*
X0054403Y0050110D03*
X0052434Y0050110D03*
X0050466Y0050110D03*
X0048497Y0050110D03*
X0048497Y0048141D03*
X0046529Y0048141D03*
X0044560Y0048141D03*
X0042592Y0048141D03*
X0042592Y0046173D03*
X0044560Y0046173D03*
X0046529Y0046173D03*
X0048497Y0046173D03*
X0050466Y0046173D03*
X0054403Y0046173D03*
X0056371Y0046173D03*
X0056371Y0048141D03*
X0054403Y0048141D03*
X0052434Y0048141D03*
X0050466Y0048141D03*
X0058340Y0048141D03*
X0060308Y0046173D03*
X0062277Y0046173D03*
X0062277Y0048141D03*
X0062277Y0050110D03*
X0062277Y0056015D03*
X0062277Y0057984D03*
X0042592Y0050110D03*
X0040623Y0050110D03*
X0038655Y0050110D03*
X0036686Y0050110D03*
X0036686Y0048141D03*
X0038655Y0048141D03*
X0036686Y0046173D03*
X0038655Y0052078D03*
X0040623Y0052078D03*
X0038655Y0054047D03*
X0036686Y0054047D03*
X0036686Y0056015D03*
X0038655Y0056015D03*
X0040623Y0056015D03*
X0040623Y0069795D03*
X0038655Y0069795D03*
X0038655Y0071763D03*
X0036686Y0071763D03*
X0036686Y0069795D03*
X0042592Y0069795D03*
X0042592Y0071763D03*
X0044560Y0069795D03*
X0046529Y0069795D03*
X0048497Y0069795D03*
X0048497Y0071763D03*
X0050466Y0071763D03*
X0052434Y0071763D03*
X0054403Y0071763D03*
X0056371Y0071763D03*
X0056371Y0069795D03*
X0054403Y0069795D03*
X0050466Y0069795D03*
X0058340Y0071763D03*
X0060308Y0071763D03*
X0062277Y0071763D03*
X0062277Y0069795D03*
D27*
X0065267Y0080860D03*
X0058287Y0080860D03*
X0051397Y0080860D03*
X0044183Y0080860D03*
X0037293Y0080860D03*
X0028149Y0064545D03*
X0021259Y0064545D03*
X0021259Y0057615D03*
X0028149Y0057615D03*
X0029210Y0038434D03*
X0022320Y0038434D03*
X0074995Y0030105D03*
X0081885Y0030105D03*
X0083886Y0023493D03*
X0090775Y0023493D03*
X0087594Y0040342D03*
X0094484Y0040342D03*
X0092121Y0047428D03*
X0085232Y0047428D03*
X0101038Y0047428D03*
X0107927Y0047428D03*
X0113578Y0047428D03*
X0120468Y0047428D03*
X0120468Y0040342D03*
X0113578Y0040342D03*
X0072157Y0080860D03*
D28*
X0018386Y0030848D03*
X0018386Y0022974D03*
D29*
X0027213Y0022942D03*
X0032912Y0022942D03*
X0038557Y0022942D03*
X0044255Y0022942D03*
X0044255Y0029832D03*
X0038557Y0029832D03*
X0032912Y0029832D03*
X0027213Y0029832D03*
X0051078Y0029837D03*
X0057535Y0029756D03*
X0063233Y0029756D03*
X0068879Y0029756D03*
X0068879Y0022866D03*
X0063233Y0022866D03*
X0057535Y0022866D03*
X0077237Y0021168D03*
X0077237Y0014279D03*
X0051078Y0036727D03*
X0028007Y0043975D03*
X0028007Y0050865D03*
X0078083Y0052713D03*
X0078083Y0045824D03*
X0131000Y0069919D03*
X0131000Y0076808D03*
X0145173Y0077793D03*
X0145173Y0084682D03*
D30*
X0118652Y0081287D03*
X0110778Y0081287D03*
X0089174Y0081297D03*
X0081300Y0081297D03*
X0078840Y0037121D03*
X0070966Y0037121D03*
D31*
X0086441Y0056676D03*
X0109671Y0056676D03*
X0109671Y0072505D03*
X0086441Y0072711D03*
D32*
X0100870Y0031076D03*
X0117721Y0031076D03*
D33*
X0137651Y0071527D03*
X0144541Y0071527D03*
X0138241Y0082551D03*
X0131352Y0082551D03*
D34*
X0132828Y0082551D03*
X0136765Y0082551D03*
X0139127Y0071527D03*
X0143064Y0071527D03*
D35*
X0138869Y0059557D03*
X0129420Y0059557D03*
X0148318Y0059557D03*
X0148318Y0043415D03*
X0138869Y0043415D03*
X0129420Y0043415D03*
D36*
X0132570Y0031516D03*
X0148712Y0031516D03*
D37*
X0166507Y0026780D03*
X0166507Y0040559D03*
X0166507Y0054339D03*
X0166507Y0068118D03*
X0166507Y0081898D03*
X0166507Y0013000D03*
X0161389Y0013000D03*
D38*
X0009367Y0028698D03*
X0009367Y0038698D03*
X0009367Y0048698D03*
X0009367Y0058698D03*
X0009367Y0068698D03*
D39*
X0009367Y0078698D03*
D40*
X0021301Y0067319D02*
X0021301Y0063946D01*
X0021268Y0062832D02*
X0021268Y0061045D01*
X0021268Y0057672D01*
X0041883Y0076559D02*
X0041883Y0083043D01*
X0081489Y0081399D02*
X0085251Y0081399D01*
X0138300Y0082466D02*
X0141812Y0082466D01*
X0138300Y0082567D02*
X0138300Y0088644D01*
D41*
X0126380Y0083545D03*
X0122829Y0087251D03*
X0109837Y0087251D03*
X0101569Y0084889D03*
X0098026Y0084889D03*
X0094482Y0084889D03*
X0098026Y0076621D03*
X0101569Y0076621D03*
X0103284Y0073883D03*
X0099740Y0073883D03*
X0095016Y0073883D03*
X0097378Y0070340D03*
X0092654Y0070340D03*
X0102103Y0070340D03*
X0115882Y0070090D03*
X0123558Y0073460D03*
X0121195Y0075823D03*
X0153581Y0091672D03*
X0159486Y0091672D03*
X0165392Y0091672D03*
X0165392Y0091672D03*
X0161836Y0096437D03*
X0155930Y0096437D03*
X0150025Y0096437D03*
X0144119Y0102343D03*
X0161836Y0102343D03*
X0120497Y0102343D03*
X0096875Y0102343D03*
X0085064Y0102343D03*
X0089308Y0093594D03*
X0077497Y0093594D03*
X0071592Y0093594D03*
X0065686Y0093594D03*
X0059781Y0093594D03*
X0053875Y0093594D03*
X0047970Y0093594D03*
X0039305Y0089385D03*
X0034580Y0089385D03*
X0027494Y0083480D03*
X0023950Y0083480D03*
X0020407Y0083480D03*
X0020407Y0087023D03*
X0023950Y0087023D03*
X0007392Y0086847D03*
X0007392Y0091744D03*
X0007392Y0096746D03*
X0015354Y0103029D03*
X0021880Y0103029D03*
X0028751Y0103029D03*
X0036559Y0103029D03*
X0043014Y0103029D03*
X0034725Y0099113D03*
X0030660Y0099113D03*
X0026395Y0099113D03*
X0021978Y0099113D03*
X0025131Y0076393D03*
X0023950Y0074031D03*
X0020407Y0074031D03*
X0018045Y0074031D03*
X0027494Y0074031D03*
X0028675Y0076393D03*
X0031037Y0074031D03*
X0032218Y0068125D03*
X0025131Y0068125D03*
X0018045Y0068125D03*
X0015683Y0068125D03*
X0015683Y0064582D03*
X0015683Y0061039D03*
X0015683Y0050409D03*
X0019226Y0050409D03*
X0018045Y0048047D03*
X0015683Y0045684D03*
X0015683Y0040960D03*
X0015683Y0038598D03*
X0050020Y0029922D03*
X0052206Y0029922D03*
X0053005Y0016045D03*
X0050643Y0016045D03*
X0048281Y0016045D03*
X0034107Y0013683D03*
X0030564Y0013683D03*
X0027021Y0013683D03*
X0023477Y0013683D03*
X0023477Y0016045D03*
X0012848Y0016045D03*
X0012848Y0018407D03*
X0012848Y0020770D03*
X0088470Y0018654D03*
X0092407Y0018654D03*
X0096344Y0018654D03*
X0103439Y0020583D03*
X0107376Y0020583D03*
X0111313Y0020583D03*
X0115250Y0020583D03*
X0109432Y0025015D03*
X0109401Y0027978D03*
X0109360Y0030859D03*
X0147673Y0016898D03*
X0150258Y0019437D03*
X0151610Y0016898D03*
X0154195Y0019437D03*
X0155547Y0016898D03*
X0158132Y0019437D03*
X0162069Y0019437D03*
X0160635Y0022276D03*
X0156698Y0022276D03*
X0152761Y0022276D03*
X0148824Y0022276D03*
X0154576Y0029315D03*
X0155781Y0031847D03*
X0159093Y0031908D03*
X0160418Y0029315D03*
X0157467Y0029315D03*
X0162165Y0031968D03*
X0156564Y0035947D03*
X0155118Y0042698D03*
X0157889Y0042879D03*
X0160599Y0043000D03*
X0160298Y0045893D03*
X0163189Y0045954D03*
X0157226Y0045893D03*
X0154456Y0045954D03*
X0151625Y0049571D03*
X0124010Y0051818D03*
X0121648Y0055361D03*
X0104084Y0058207D03*
X0096998Y0058207D03*
X0093454Y0058207D03*
D42*
X0065729Y0058036D03*
X0065729Y0061924D03*
X0064774Y0063884D03*
X0056830Y0059827D03*
X0053093Y0059881D03*
X0053070Y0057728D03*
X0049107Y0057430D03*
X0046610Y0057591D03*
X0046610Y0059973D03*
X0044411Y0059904D03*
X0048947Y0059996D03*
X0051971Y0064623D03*
X0054949Y0064508D03*
X0046563Y0065781D03*
X0044133Y0065781D03*
X0047285Y0074679D03*
X0044342Y0076466D03*
X0045505Y0079419D03*
X0057157Y0077460D03*
X0057157Y0075520D03*
X0059374Y0075560D03*
X0059374Y0077460D03*
X0063562Y0074679D03*
X0070663Y0077590D03*
X0072931Y0077590D03*
X0075107Y0077590D03*
X0065729Y0067842D03*
X0054647Y0052525D03*
X0049503Y0051915D03*
X0047289Y0051915D03*
X0045113Y0051915D03*
X0033867Y0054571D03*
X0026337Y0049280D03*
X0013720Y0042984D03*
X0017541Y0036323D03*
X0015672Y0032593D03*
X0046496Y0041738D03*
X0046496Y0043914D03*
X0050517Y0042942D03*
X0054861Y0040087D03*
X0058369Y0043769D03*
X0059057Y0035811D03*
X0021268Y0057625D03*
X0098026Y0084889D03*
D43*
X0092035Y0073076D02*
X0080862Y0073076D01*
X0054972Y0064509D02*
X0053093Y0062630D01*
X0053093Y0059881D01*
X0157108Y0012848D02*
X0157108Y0012581D01*
X0157110Y0012473D01*
X0157116Y0012365D01*
X0157125Y0012258D01*
X0157139Y0012151D01*
X0157156Y0012044D01*
X0157177Y0011938D01*
X0157202Y0011833D01*
X0157230Y0011729D01*
X0157263Y0011626D01*
X0157299Y0011524D01*
X0157338Y0011424D01*
X0157381Y0011325D01*
X0157428Y0011227D01*
X0157478Y0011132D01*
X0157531Y0011038D01*
X0157588Y0010946D01*
X0157648Y0010856D01*
X0157711Y0010769D01*
X0157777Y0010684D01*
X0157847Y0010601D01*
X0157919Y0010520D01*
X0157994Y0010443D01*
X0158071Y0010368D01*
X0158152Y0010296D01*
X0158235Y0010226D01*
X0158320Y0010160D01*
X0158407Y0010097D01*
X0158497Y0010037D01*
X0158589Y0009980D01*
X0158683Y0009927D01*
X0158778Y0009877D01*
X0158876Y0009830D01*
X0158975Y0009787D01*
X0159075Y0009748D01*
X0159177Y0009712D01*
X0159280Y0009679D01*
X0159384Y0009651D01*
X0159489Y0009626D01*
X0159595Y0009605D01*
X0159702Y0009588D01*
X0159809Y0009574D01*
X0159916Y0009565D01*
X0160024Y0009559D01*
X0160132Y0009557D01*
X0157089Y0012932D02*
X0157091Y0013062D01*
X0157097Y0013193D01*
X0157107Y0013323D01*
X0157120Y0013453D01*
X0157138Y0013582D01*
X0157160Y0013711D01*
X0157185Y0013838D01*
X0157215Y0013966D01*
X0157248Y0014092D01*
X0157285Y0014217D01*
X0157325Y0014341D01*
X0157370Y0014464D01*
X0157418Y0014585D01*
X0157470Y0014705D01*
X0157525Y0014823D01*
X0157584Y0014939D01*
X0157646Y0015054D01*
X0157712Y0015166D01*
X0157781Y0015277D01*
X0157854Y0015385D01*
X0157929Y0015492D01*
X0158008Y0015596D01*
X0158090Y0015697D01*
X0158175Y0015796D01*
X0158263Y0015892D01*
X0158354Y0015986D01*
X0158448Y0016077D01*
X0158544Y0016165D01*
X0158643Y0016250D01*
X0158744Y0016332D01*
X0158848Y0016411D01*
X0158955Y0016486D01*
X0159063Y0016559D01*
X0159174Y0016628D01*
X0159286Y0016694D01*
X0159401Y0016756D01*
X0159517Y0016815D01*
X0159635Y0016870D01*
X0159755Y0016922D01*
X0159876Y0016970D01*
X0159999Y0017015D01*
X0160123Y0017055D01*
X0160248Y0017092D01*
X0160374Y0017125D01*
X0160502Y0017155D01*
X0160629Y0017180D01*
X0160758Y0017202D01*
X0160887Y0017220D01*
X0161017Y0017233D01*
X0161147Y0017243D01*
X0161278Y0017249D01*
X0161408Y0017251D01*
X0161408Y0017250D02*
X0164555Y0017202D01*
X0164778Y0017252D02*
X0166906Y0017252D01*
X0169884Y0016278D02*
X0169884Y0015072D01*
X0169955Y0014203D02*
X0169953Y0014312D01*
X0169947Y0014421D01*
X0169938Y0014529D01*
X0169924Y0014637D01*
X0169907Y0014744D01*
X0169885Y0014851D01*
X0169860Y0014957D01*
X0169831Y0015062D01*
X0169799Y0015166D01*
X0169763Y0015269D01*
X0169723Y0015370D01*
X0169679Y0015470D01*
X0169632Y0015568D01*
X0169582Y0015664D01*
X0169528Y0015759D01*
X0169471Y0015851D01*
X0169411Y0015942D01*
X0169347Y0016030D01*
X0169280Y0016116D01*
X0169210Y0016200D01*
X0169138Y0016281D01*
X0169062Y0016359D01*
X0168984Y0016435D01*
X0168903Y0016507D01*
X0168819Y0016577D01*
X0168733Y0016644D01*
X0168645Y0016708D01*
X0168554Y0016768D01*
X0168462Y0016825D01*
X0168367Y0016879D01*
X0168271Y0016929D01*
X0168173Y0016976D01*
X0168073Y0017020D01*
X0167972Y0017060D01*
X0167869Y0017096D01*
X0167765Y0017128D01*
X0167660Y0017157D01*
X0167554Y0017182D01*
X0167447Y0017204D01*
X0167340Y0017221D01*
X0167232Y0017235D01*
X0167124Y0017244D01*
X0167015Y0017250D01*
X0166906Y0017252D01*
X0170049Y0012768D02*
X0170058Y0012656D01*
X0170064Y0012545D01*
X0170065Y0012433D01*
X0170063Y0012321D01*
X0170056Y0012209D01*
X0170046Y0012098D01*
X0170032Y0011987D01*
X0170014Y0011876D01*
X0169992Y0011767D01*
X0169966Y0011658D01*
X0169937Y0011550D01*
X0169904Y0011443D01*
X0169867Y0011337D01*
X0169826Y0011233D01*
X0169782Y0011130D01*
X0169734Y0011029D01*
X0169683Y0010930D01*
X0169628Y0010832D01*
X0169570Y0010737D01*
X0169509Y0010643D01*
X0169444Y0010552D01*
X0169377Y0010463D01*
X0169306Y0010376D01*
X0169232Y0010292D01*
X0169156Y0010210D01*
X0169076Y0010132D01*
X0168994Y0010056D01*
X0168909Y0009983D01*
X0168822Y0009913D01*
X0168732Y0009846D01*
X0168640Y0009782D01*
X0168546Y0009721D01*
X0168450Y0009664D01*
X0168352Y0009610D01*
X0168252Y0009560D01*
X0168151Y0009513D01*
X0168047Y0009470D01*
X0167943Y0009430D01*
X0167837Y0009394D01*
X0167730Y0009362D01*
X0167621Y0009334D01*
X0167512Y0009309D01*
X0167402Y0009288D01*
X0167292Y0009271D01*
X0167181Y0009258D01*
D44*
X0113210Y0040283D02*
X0094494Y0040283D01*
X0086582Y0041139D02*
X0086547Y0046196D01*
X0081041Y0051702D01*
X0079613Y0051702D01*
X0089047Y0054750D02*
X0090931Y0052866D01*
X0090931Y0047615D01*
X0107289Y0047816D02*
X0107289Y0054998D01*
X0117415Y0054220D02*
X0117415Y0064834D01*
X0112597Y0069652D01*
X0117415Y0054220D02*
X0120667Y0050968D01*
X0120667Y0047589D01*
X0113461Y0047665D02*
X0107440Y0047665D01*
X0107289Y0047816D01*
X0113461Y0047665D02*
X0113461Y0041488D01*
X0112809Y0040835D01*
X0073939Y0078460D02*
X0070376Y0078460D01*
X0070384Y0083247D02*
X0073947Y0083247D01*
D45*
X0097926Y0064374D02*
X0100962Y0061338D01*
X0100962Y0046915D01*
X0081879Y0041357D02*
X0078756Y0044480D01*
X0068694Y0044480D01*
X0068694Y0052383D01*
X0081879Y0041357D02*
X0081879Y0030236D01*
X0091421Y0023462D02*
X0097580Y0023462D01*
X0097580Y0030844D01*
X0129581Y0059766D02*
X0138675Y0059766D01*
X0118657Y0080530D02*
X0118657Y0088176D01*
D46*
X0131359Y0082468D02*
X0131359Y0076340D01*
X0137655Y0070859D02*
X0137655Y0061822D01*
X0148311Y0058199D02*
X0148311Y0055902D01*
X0138434Y0046025D01*
X0138434Y0043007D01*
X0148973Y0042286D02*
X0148973Y0031312D01*
X0136993Y0025826D02*
X0165897Y0025826D01*
X0136993Y0025826D02*
X0131930Y0030890D01*
X0144529Y0071921D02*
X0144529Y0077420D01*
X0145175Y0084826D02*
X0145175Y0088946D01*
X0035864Y0083007D02*
X0035041Y0083830D01*
X0033977Y0083830D01*
D47*
X0011498Y0056403D02*
X0013657Y0054244D01*
X0017419Y0054244D01*
X0018049Y0051382D02*
X0021144Y0051382D01*
X0073568Y0014195D02*
X0081290Y0014195D01*
X0077263Y0014179D02*
X0077263Y0010234D01*
X0129039Y0060248D02*
X0129039Y0062435D01*
X0112296Y0079177D01*
D48*
X0121086Y0040053D02*
X0123952Y0037187D01*
X0130190Y0037187D01*
X0132709Y0034668D01*
X0158486Y0009358D02*
X0167343Y0009365D01*
X0028108Y0043135D02*
X0023263Y0043135D01*
X0023263Y0038907D01*
X0023270Y0038818D02*
X0023364Y0038818D01*
X0023364Y0021357D01*
X0028108Y0043135D02*
X0028108Y0044465D01*
D49*
X0089282Y0081275D02*
X0111143Y0081275D01*
D50*
X0089309Y0082610D03*
X0050625Y0081769D03*
X0033963Y0083846D03*
X0017224Y0054238D03*
X0111354Y0057898D03*
X0134153Y0058568D03*
X0131951Y0070474D03*
X0164345Y0068074D03*
X0164205Y0081768D03*
X0164596Y0053639D03*
X0164271Y0040174D03*
X0127325Y0041314D03*
X0120963Y0032921D03*
M02*
