%
M48
M72
T01C0.00787
T02C0.00984
T03C0.01378
T04C0.04331
%
T01
X45505Y79419
X44342Y76466
X47285Y74679
X57157Y75520
X57157Y77460
X59374Y77460
X59374Y75560
X63562Y74679
X70663Y77590
X72931Y77590
X75107Y77590
X65729Y67842
X64774Y63884
X65729Y61924
X65729Y58036
X56830Y59827
X53093Y59881
X53070Y57728
X49107Y57430
X46610Y57591
X46610Y59973
X44411Y59904
X48947Y59996
X51971Y64623
X54949Y64508
X46563Y65781
X44133Y65781
X33867Y54571
X26337Y49280
X13720Y42984
X17541Y36323
X15672Y32593
X46496Y41738
X46496Y43914
X50517Y42942
X54861Y40087
X58369Y43769
X59057Y35811
X49503Y51915
X47289Y51915
X45113Y51915
X54647Y52525
X21268Y57625
X98026Y84889
T02
X15354Y103029
X21880Y103029
X28751Y103029
X36559Y103029
X43014Y103029
X34725Y99113
X30660Y99113
X26395Y99113
X21978Y99113
X7392Y96746
X7392Y91744
X7392Y86847
X20407Y87023
X23950Y87023
X23950Y83480
X20407Y83480
X27494Y83480
X34580Y89385
X39305Y89385
X47970Y93594
X53875Y93594
X59781Y93594
X65686Y93594
X71592Y93594
X77497Y93594
X89308Y93594
X85064Y102343
X96875Y102343
X120497Y102343
X144119Y102343
X150025Y96437
X155930Y96437
X161836Y96437
X159486Y91672
X165392Y91672
X165392Y91672
X153581Y91672
X161836Y102343
X126380Y83545
X122829Y87251
X109837Y87251
X101569Y84889
X98026Y84889
X94482Y84889
X98026Y76621
X101569Y76621
X103284Y73883
X99740Y73883
X95016Y73883
X97378Y70340
X92654Y70340
X102103Y70340
X115882Y70090
X123558Y73460
X121195Y75823
X104084Y58207
X96998Y58207
X93454Y58207
X121648Y55361
X124010Y51818
X151625Y49571
X154456Y45954
X157226Y45893
X160298Y45893
X163189Y45954
X160599Y43000
X157889Y42879
X155118Y42698
X156564Y35947
X155781Y31847
X159093Y31908
X160418Y29315
X157467Y29315
X154576Y29315
X162165Y31968
X160635Y22276
X156698Y22276
X152761Y22276
X148824Y22276
X150258Y19437
X151610Y16898
X154195Y19437
X155547Y16898
X158132Y19437
X162069Y19437
X147673Y16898
X115250Y20583
X111313Y20583
X107376Y20583
X103439Y20583
X96344Y18654
X92407Y18654
X88470Y18654
X109432Y25015
X109401Y27978
X109360Y30859
X53005Y16045
X50643Y16045
X48281Y16045
X34107Y13683
X30564Y13683
X27021Y13683
X23477Y13683
X23477Y16045
X12848Y16045
X12848Y18407
X12848Y20770
X15683Y38598
X15683Y40960
X15683Y45684
X18045Y48047
X19226Y50409
X15683Y50409
X15683Y61039
X15683Y64582
X15683Y68125
X18045Y68125
X25131Y68125
X32218Y68125
X31037Y74031
X28675Y76393
X27494Y74031
X25131Y76393
X23950Y74031
X20407Y74031
X18045Y74031
X50020Y29922
X52206Y29922
T03
X33963Y83846
X50625Y81769
X89309Y82610
X131951Y70474
X134153Y58568
X111354Y57898
X127325Y41314
X120963Y32921
X164271Y40174
X164596Y53639
X164345Y68074
X164205Y81768
X17224Y54238
T04
X9367Y78698
X9367Y68698
X9367Y58698
X9367Y48698
X9367Y38698
X9367Y28698
M30
