G75*
%MOIN*%
%OFA0B0*%
%FSLAX25Y25*%
%IPPOS*%
%LPD*%
%AMOC8*
5,1,8,0,0,1.08239X$1,22.5*
%
%ADD10C,0.00600*%
%ADD11R,0.07012X0.03401*%
%ADD12R,0.01518X0.06223*%
%ADD13R,0.05697X0.06439*%
%ADD14R,0.58002X0.05542*%
%ADD15R,0.46844X0.09908*%
%ADD16C,0.06496*%
%ADD17R,0.06496X0.06496*%
%ADD18C,0.01772*%
%ADD19C,0.01575*%
%ADD20C,0.02165*%
%ADD21C,0.01600*%
%ADD22C,0.01000*%
D10*
X0004069Y0007764D02*
X0004069Y0106189D01*
X0171392Y0106189D01*
X0171392Y0007764D01*
X0004069Y0007764D01*
X0005469Y0009164D02*
X0005469Y0027270D01*
X0005851Y0026348D01*
X0007018Y0025181D01*
X0007474Y0024992D01*
X0007474Y0012872D01*
X0008470Y0011876D01*
X0010181Y0010164D01*
X0011177Y0009168D01*
X0165248Y0009168D01*
X0168792Y0012712D01*
X0169788Y0013708D01*
X0169788Y0046909D01*
X0167079Y0049617D01*
X0166084Y0050613D01*
X0157545Y0050613D01*
X0149577Y0058581D01*
X0148581Y0059577D01*
X0135948Y0059577D01*
X0135938Y0059587D01*
X0156580Y0059587D01*
X0162614Y0053553D01*
X0162614Y0052818D01*
X0163775Y0051656D01*
X0165418Y0051656D01*
X0166579Y0052818D01*
X0166579Y0054460D01*
X0165418Y0055622D01*
X0164505Y0055622D01*
X0158560Y0061566D01*
X0157740Y0062386D01*
X0154904Y0062386D01*
X0159139Y0066622D01*
X0162993Y0066622D01*
X0163524Y0066091D01*
X0165167Y0066091D01*
X0166328Y0067252D01*
X0166328Y0068895D01*
X0165167Y0070056D01*
X0163524Y0070056D01*
X0162890Y0069422D01*
X0157979Y0069422D01*
X0157159Y0068602D01*
X0152550Y0063993D01*
X0150898Y0063993D01*
X0159312Y0072406D01*
X0160132Y0073226D01*
X0160132Y0078090D01*
X0162348Y0080306D01*
X0162863Y0080306D01*
X0163384Y0079786D01*
X0165026Y0079786D01*
X0166188Y0080947D01*
X0166188Y0082590D01*
X0165026Y0083751D01*
X0163384Y0083751D01*
X0162739Y0083106D01*
X0161188Y0083106D01*
X0160368Y0082286D01*
X0157332Y0079250D01*
X0157332Y0074386D01*
X0148696Y0065750D01*
X0073656Y0065750D01*
X0072836Y0064930D01*
X0071230Y0063323D01*
X0066716Y0063323D01*
X0066428Y0063611D01*
X0065030Y0063611D01*
X0064041Y0062623D01*
X0064041Y0061225D01*
X0064077Y0061189D01*
X0057853Y0061189D01*
X0057529Y0061514D01*
X0056427Y0061514D01*
X0056427Y0062370D01*
X0055812Y0062985D01*
X0056636Y0063809D01*
X0056636Y0065207D01*
X0055648Y0066195D01*
X0054250Y0066195D01*
X0053518Y0065463D01*
X0053378Y0065602D01*
X0053378Y0066380D01*
X0054765Y0067766D01*
X0061849Y0067766D01*
X0062669Y0068586D01*
X0064963Y0070880D01*
X0064963Y0073694D01*
X0065249Y0073980D01*
X0065249Y0075378D01*
X0064261Y0076366D01*
X0062863Y0076366D01*
X0061874Y0075378D01*
X0061874Y0073980D01*
X0062163Y0073691D01*
X0062163Y0072040D01*
X0060689Y0070566D01*
X0053605Y0070566D01*
X0051398Y0068360D01*
X0050578Y0067539D01*
X0050578Y0065617D01*
X0050283Y0065322D01*
X0050283Y0063925D01*
X0050578Y0063629D01*
X0050578Y0063097D01*
X0051594Y0062081D01*
X0052415Y0061261D01*
X0053576Y0061261D01*
X0053627Y0061210D01*
X0053627Y0053891D01*
X0052960Y0053224D01*
X0052960Y0053195D01*
X0052922Y0053233D01*
X0050571Y0053233D01*
X0050202Y0053602D01*
X0048804Y0053602D01*
X0048396Y0053194D01*
X0047988Y0053602D01*
X0046590Y0053602D01*
X0046201Y0053213D01*
X0045812Y0053602D01*
X0045390Y0053602D01*
X0045038Y0053954D01*
X0019546Y0053954D01*
X0019206Y0054294D01*
X0019206Y0055060D01*
X0018045Y0056221D01*
X0017809Y0056221D01*
X0025956Y0064368D01*
X0043159Y0064368D01*
X0043434Y0064094D01*
X0044832Y0064094D01*
X0045348Y0064610D01*
X0045864Y0064094D01*
X0047262Y0064094D01*
X0048251Y0065082D01*
X0048251Y0066480D01*
X0047978Y0066753D01*
X0047978Y0068179D01*
X0047158Y0068999D01*
X0043790Y0072366D01*
X0011351Y0072366D01*
X0010192Y0072846D01*
X0008542Y0072846D01*
X0007018Y0072214D01*
X0005851Y0071048D01*
X0005469Y0070125D01*
X0005469Y0074828D01*
X0005746Y0074550D01*
X0012988Y0074550D01*
X0013515Y0075077D01*
X0013515Y0077295D01*
X0041565Y0077295D01*
X0042654Y0076205D01*
X0042654Y0075767D01*
X0043643Y0074779D01*
X0045040Y0074779D01*
X0046029Y0075767D01*
X0046029Y0077165D01*
X0045462Y0077732D01*
X0046203Y0077732D01*
X0047192Y0078720D01*
X0047192Y0079893D01*
X0049698Y0079893D01*
X0049804Y0079787D01*
X0051447Y0079787D01*
X0051553Y0079893D01*
X0090916Y0079893D01*
X0091443Y0080420D01*
X0091443Y0086708D01*
X0091429Y0086721D01*
X0091429Y0092081D01*
X0090902Y0092608D01*
X0043313Y0092608D01*
X0042786Y0092081D01*
X0042786Y0087235D01*
X0032168Y0087235D01*
X0031641Y0086708D01*
X0031641Y0080420D01*
X0031966Y0080095D01*
X0013515Y0080095D01*
X0013515Y0082319D01*
X0012988Y0082846D01*
X0005746Y0082846D01*
X0005469Y0082568D01*
X0005469Y0104789D01*
X0169992Y0104789D01*
X0169992Y0009164D01*
X0005469Y0009164D01*
X0005469Y0009537D02*
X0010809Y0009537D01*
X0010210Y0010135D02*
X0005469Y0010135D01*
X0005469Y0010734D02*
X0009612Y0010734D01*
X0010181Y0010164D02*
X0010181Y0010164D01*
X0009013Y0011332D02*
X0005469Y0011332D01*
X0005469Y0011931D02*
X0008415Y0011931D01*
X0008470Y0011876D02*
X0008470Y0011876D01*
X0007816Y0012529D02*
X0005469Y0012529D01*
X0005469Y0013128D02*
X0007474Y0013128D01*
X0007474Y0013726D02*
X0005469Y0013726D01*
X0005469Y0014325D02*
X0007474Y0014325D01*
X0007474Y0014924D02*
X0005469Y0014924D01*
X0005469Y0015522D02*
X0007474Y0015522D01*
X0007474Y0016121D02*
X0005469Y0016121D01*
X0005469Y0016719D02*
X0007474Y0016719D01*
X0007474Y0017318D02*
X0005469Y0017318D01*
X0005469Y0017916D02*
X0007474Y0017916D01*
X0007474Y0018515D02*
X0005469Y0018515D01*
X0005469Y0019113D02*
X0007474Y0019113D01*
X0007474Y0019712D02*
X0005469Y0019712D01*
X0005469Y0020310D02*
X0007474Y0020310D01*
X0007474Y0020909D02*
X0005469Y0020909D01*
X0005469Y0021507D02*
X0007474Y0021507D01*
X0007474Y0022106D02*
X0005469Y0022106D01*
X0005469Y0022704D02*
X0007474Y0022704D01*
X0007474Y0023303D02*
X0005469Y0023303D01*
X0005469Y0023901D02*
X0007474Y0023901D01*
X0007474Y0024500D02*
X0005469Y0024500D01*
X0005469Y0025098D02*
X0007218Y0025098D01*
X0006502Y0025697D02*
X0005469Y0025697D01*
X0005469Y0026295D02*
X0005904Y0026295D01*
X0005625Y0026894D02*
X0005469Y0026894D01*
X0010874Y0024832D02*
X0011717Y0025181D01*
X0012884Y0026348D01*
X0013515Y0027873D01*
X0013515Y0029523D01*
X0012884Y0031048D01*
X0011717Y0032214D01*
X0010192Y0032846D01*
X0008542Y0032846D01*
X0007018Y0032214D01*
X0005851Y0031048D01*
X0005469Y0030125D01*
X0005469Y0047270D01*
X0005851Y0046348D01*
X0007018Y0045181D01*
X0008542Y0044550D01*
X0010192Y0044550D01*
X0011717Y0045181D01*
X0012884Y0046348D01*
X0013515Y0047873D01*
X0013515Y0049523D01*
X0013361Y0049895D01*
X0013361Y0051774D01*
X0015241Y0053654D01*
X0015241Y0053417D01*
X0016403Y0052256D01*
X0017285Y0052256D01*
X0017566Y0051974D01*
X0018386Y0051154D01*
X0043487Y0051154D01*
X0044414Y0050227D01*
X0045812Y0050227D01*
X0045949Y0050365D01*
X0045949Y0049712D01*
X0046769Y0048892D01*
X0048819Y0046842D01*
X0051201Y0046842D01*
X0053057Y0044986D01*
X0053057Y0039921D01*
X0053173Y0039805D01*
X0053173Y0039388D01*
X0054162Y0038399D01*
X0055560Y0038399D01*
X0056548Y0039388D01*
X0056548Y0040110D01*
X0057657Y0039002D01*
X0057657Y0036797D01*
X0057370Y0036510D01*
X0057370Y0035112D01*
X0058358Y0034124D01*
X0059756Y0034124D01*
X0060744Y0035112D01*
X0060744Y0036510D01*
X0060457Y0036798D01*
X0060457Y0040161D01*
X0059637Y0040982D01*
X0057739Y0042879D01*
X0057739Y0048416D01*
X0056919Y0049236D01*
X0055317Y0050837D01*
X0055346Y0050837D01*
X0056335Y0051826D01*
X0056335Y0052230D01*
X0056427Y0052322D01*
X0056427Y0058139D01*
X0057529Y0058139D01*
X0057779Y0058389D01*
X0064041Y0058389D01*
X0064041Y0057337D01*
X0065030Y0056349D01*
X0066428Y0056349D01*
X0066626Y0056546D01*
X0074478Y0056546D01*
X0075298Y0057366D01*
X0077518Y0059587D01*
X0110239Y0059587D01*
X0109371Y0058719D01*
X0109371Y0057077D01*
X0110533Y0055915D01*
X0112175Y0055915D01*
X0112437Y0056177D01*
X0147173Y0056177D01*
X0156137Y0047213D01*
X0164675Y0047213D01*
X0166388Y0045501D01*
X0166388Y0040642D01*
X0166253Y0040776D01*
X0166253Y0040995D01*
X0165092Y0042156D01*
X0163449Y0042156D01*
X0162288Y0040995D01*
X0162288Y0039353D01*
X0163449Y0038191D01*
X0163956Y0038191D01*
X0163956Y0016704D01*
X0162367Y0015116D01*
X0038812Y0015116D01*
X0019219Y0034709D01*
X0019219Y0035615D01*
X0019228Y0035624D01*
X0019228Y0037022D01*
X0018240Y0038010D01*
X0016842Y0038010D01*
X0015853Y0037022D01*
X0015853Y0036954D01*
X0015819Y0036919D01*
X0015819Y0033300D01*
X0036408Y0012712D01*
X0036551Y0012568D01*
X0012586Y0012568D01*
X0010874Y0014280D01*
X0010874Y0024832D01*
X0010874Y0024500D02*
X0024620Y0024500D01*
X0025218Y0023901D02*
X0010874Y0023901D01*
X0010874Y0023303D02*
X0025817Y0023303D01*
X0026415Y0022704D02*
X0010874Y0022704D01*
X0010874Y0022106D02*
X0027014Y0022106D01*
X0027612Y0021507D02*
X0010874Y0021507D01*
X0010874Y0020909D02*
X0028211Y0020909D01*
X0028809Y0020310D02*
X0010874Y0020310D01*
X0010874Y0019712D02*
X0029408Y0019712D01*
X0030006Y0019113D02*
X0010874Y0019113D01*
X0010874Y0018515D02*
X0030605Y0018515D01*
X0031203Y0017916D02*
X0010874Y0017916D01*
X0010874Y0017318D02*
X0031802Y0017318D01*
X0032400Y0016719D02*
X0010874Y0016719D01*
X0010874Y0016121D02*
X0032999Y0016121D01*
X0033597Y0015522D02*
X0010874Y0015522D01*
X0010874Y0014924D02*
X0034196Y0014924D01*
X0034794Y0014325D02*
X0010874Y0014325D01*
X0011427Y0013726D02*
X0035393Y0013726D01*
X0035991Y0013128D02*
X0012026Y0013128D01*
X0031224Y0022704D02*
X0163956Y0022704D01*
X0163956Y0022106D02*
X0031822Y0022106D01*
X0032421Y0021507D02*
X0163956Y0021507D01*
X0163956Y0020909D02*
X0033019Y0020909D01*
X0033618Y0020310D02*
X0163956Y0020310D01*
X0163956Y0019712D02*
X0034216Y0019712D01*
X0034815Y0019113D02*
X0163956Y0019113D01*
X0163956Y0018515D02*
X0035413Y0018515D01*
X0036012Y0017916D02*
X0163956Y0017916D01*
X0163956Y0017318D02*
X0036610Y0017318D01*
X0037209Y0016719D02*
X0163956Y0016719D01*
X0163372Y0016121D02*
X0037807Y0016121D01*
X0038406Y0015522D02*
X0162773Y0015522D01*
X0168609Y0012529D02*
X0169992Y0012529D01*
X0169992Y0011931D02*
X0168010Y0011931D01*
X0167412Y0011332D02*
X0169992Y0011332D01*
X0169992Y0010734D02*
X0166813Y0010734D01*
X0166215Y0010135D02*
X0169992Y0010135D01*
X0169992Y0009537D02*
X0165616Y0009537D01*
X0169207Y0013128D02*
X0169992Y0013128D01*
X0169992Y0013726D02*
X0169788Y0013726D01*
X0169788Y0014325D02*
X0169992Y0014325D01*
X0169992Y0014924D02*
X0169788Y0014924D01*
X0169788Y0015522D02*
X0169992Y0015522D01*
X0169992Y0016121D02*
X0169788Y0016121D01*
X0169788Y0016719D02*
X0169992Y0016719D01*
X0169992Y0017318D02*
X0169788Y0017318D01*
X0169788Y0017916D02*
X0169992Y0017916D01*
X0169992Y0018515D02*
X0169788Y0018515D01*
X0169788Y0019113D02*
X0169992Y0019113D01*
X0169992Y0019712D02*
X0169788Y0019712D01*
X0169788Y0020310D02*
X0169992Y0020310D01*
X0169992Y0020909D02*
X0169788Y0020909D01*
X0169788Y0021507D02*
X0169992Y0021507D01*
X0169992Y0022106D02*
X0169788Y0022106D01*
X0169788Y0022704D02*
X0169992Y0022704D01*
X0169992Y0023303D02*
X0169788Y0023303D01*
X0169788Y0023901D02*
X0169992Y0023901D01*
X0169992Y0024500D02*
X0169788Y0024500D01*
X0169788Y0025098D02*
X0169992Y0025098D01*
X0169992Y0025697D02*
X0169788Y0025697D01*
X0169788Y0026295D02*
X0169992Y0026295D01*
X0169992Y0026894D02*
X0169788Y0026894D01*
X0169788Y0027492D02*
X0169992Y0027492D01*
X0169992Y0028091D02*
X0169788Y0028091D01*
X0169788Y0028689D02*
X0169992Y0028689D01*
X0169992Y0029288D02*
X0169788Y0029288D01*
X0169788Y0029886D02*
X0169992Y0029886D01*
X0169992Y0030485D02*
X0169788Y0030485D01*
X0169788Y0031083D02*
X0169992Y0031083D01*
X0169992Y0031682D02*
X0169788Y0031682D01*
X0169788Y0032280D02*
X0169992Y0032280D01*
X0169992Y0032879D02*
X0169788Y0032879D01*
X0169788Y0033477D02*
X0169992Y0033477D01*
X0169992Y0034076D02*
X0169788Y0034076D01*
X0169788Y0034674D02*
X0169992Y0034674D01*
X0169992Y0035273D02*
X0169788Y0035273D01*
X0169788Y0035871D02*
X0169992Y0035871D01*
X0169992Y0036470D02*
X0169788Y0036470D01*
X0169788Y0037068D02*
X0169992Y0037068D01*
X0169992Y0037667D02*
X0169788Y0037667D01*
X0169788Y0038265D02*
X0169992Y0038265D01*
X0169992Y0038864D02*
X0169788Y0038864D01*
X0169788Y0039462D02*
X0169992Y0039462D01*
X0169992Y0040061D02*
X0169788Y0040061D01*
X0169788Y0040659D02*
X0169992Y0040659D01*
X0169992Y0041258D02*
X0169788Y0041258D01*
X0169788Y0041857D02*
X0169992Y0041857D01*
X0169992Y0042455D02*
X0169788Y0042455D01*
X0169788Y0043054D02*
X0169992Y0043054D01*
X0169992Y0043652D02*
X0169788Y0043652D01*
X0169788Y0044251D02*
X0169992Y0044251D01*
X0169992Y0044849D02*
X0169788Y0044849D01*
X0169788Y0045448D02*
X0169992Y0045448D01*
X0169992Y0046046D02*
X0169788Y0046046D01*
X0169788Y0046645D02*
X0169992Y0046645D01*
X0169992Y0047243D02*
X0169453Y0047243D01*
X0169992Y0047842D02*
X0168855Y0047842D01*
X0168256Y0048440D02*
X0169992Y0048440D01*
X0169992Y0049039D02*
X0167658Y0049039D01*
X0167059Y0049637D02*
X0169992Y0049637D01*
X0169992Y0050236D02*
X0166461Y0050236D01*
X0165792Y0052031D02*
X0169992Y0052031D01*
X0169992Y0051433D02*
X0156725Y0051433D01*
X0156127Y0052031D02*
X0163400Y0052031D01*
X0162802Y0052630D02*
X0155528Y0052630D01*
X0154930Y0053228D02*
X0162614Y0053228D01*
X0162340Y0053827D02*
X0154331Y0053827D01*
X0153733Y0054425D02*
X0161742Y0054425D01*
X0161143Y0055024D02*
X0153134Y0055024D01*
X0152536Y0055622D02*
X0160545Y0055622D01*
X0159946Y0056221D02*
X0151937Y0056221D01*
X0151338Y0056819D02*
X0159348Y0056819D01*
X0158749Y0057418D02*
X0150740Y0057418D01*
X0150141Y0058016D02*
X0158151Y0058016D01*
X0157552Y0058615D02*
X0149543Y0058615D01*
X0148944Y0059213D02*
X0156954Y0059213D01*
X0159118Y0061009D02*
X0169992Y0061009D01*
X0169992Y0061607D02*
X0158519Y0061607D01*
X0157921Y0062206D02*
X0169992Y0062206D01*
X0169992Y0062804D02*
X0155321Y0062804D01*
X0155920Y0063403D02*
X0169992Y0063403D01*
X0169992Y0064001D02*
X0156519Y0064001D01*
X0157117Y0064600D02*
X0169992Y0064600D01*
X0169992Y0065198D02*
X0157716Y0065198D01*
X0158314Y0065797D02*
X0169992Y0065797D01*
X0169992Y0066395D02*
X0165471Y0066395D01*
X0166070Y0066994D02*
X0169992Y0066994D01*
X0169992Y0067593D02*
X0166328Y0067593D01*
X0166328Y0068191D02*
X0169992Y0068191D01*
X0169992Y0068790D02*
X0166328Y0068790D01*
X0165835Y0069388D02*
X0169992Y0069388D01*
X0169992Y0069987D02*
X0165236Y0069987D01*
X0163454Y0069987D02*
X0156892Y0069987D01*
X0157490Y0070585D02*
X0169992Y0070585D01*
X0169992Y0071184D02*
X0158089Y0071184D01*
X0158687Y0071782D02*
X0169992Y0071782D01*
X0169992Y0072381D02*
X0159286Y0072381D01*
X0159885Y0072979D02*
X0169992Y0072979D01*
X0169992Y0073578D02*
X0160132Y0073578D01*
X0160132Y0074176D02*
X0169992Y0074176D01*
X0169992Y0074775D02*
X0160132Y0074775D01*
X0160132Y0075373D02*
X0169992Y0075373D01*
X0169992Y0075972D02*
X0160132Y0075972D01*
X0160132Y0076570D02*
X0169992Y0076570D01*
X0169992Y0077169D02*
X0160132Y0077169D01*
X0160132Y0077767D02*
X0169992Y0077767D01*
X0169992Y0078366D02*
X0160408Y0078366D01*
X0161006Y0078964D02*
X0169992Y0078964D01*
X0169992Y0079563D02*
X0161605Y0079563D01*
X0162203Y0080161D02*
X0163008Y0080161D01*
X0165402Y0080161D02*
X0169992Y0080161D01*
X0169992Y0080760D02*
X0166000Y0080760D01*
X0166188Y0081358D02*
X0169992Y0081358D01*
X0169992Y0081957D02*
X0166188Y0081957D01*
X0166188Y0082555D02*
X0169992Y0082555D01*
X0169992Y0083154D02*
X0165623Y0083154D01*
X0162787Y0083154D02*
X0091443Y0083154D01*
X0091443Y0083752D02*
X0169992Y0083752D01*
X0169992Y0084351D02*
X0091443Y0084351D01*
X0091443Y0084949D02*
X0169992Y0084949D01*
X0169992Y0085548D02*
X0091443Y0085548D01*
X0091443Y0086146D02*
X0169992Y0086146D01*
X0169992Y0086745D02*
X0091429Y0086745D01*
X0091429Y0087343D02*
X0169992Y0087343D01*
X0169992Y0087942D02*
X0091429Y0087942D01*
X0091429Y0088540D02*
X0169992Y0088540D01*
X0169992Y0089139D02*
X0091429Y0089139D01*
X0091429Y0089737D02*
X0169992Y0089737D01*
X0169992Y0090336D02*
X0091429Y0090336D01*
X0091429Y0090934D02*
X0169992Y0090934D01*
X0169992Y0091533D02*
X0091429Y0091533D01*
X0091379Y0092131D02*
X0169992Y0092131D01*
X0169992Y0092730D02*
X0005469Y0092730D01*
X0005469Y0093328D02*
X0169992Y0093328D01*
X0169992Y0093927D02*
X0005469Y0093927D01*
X0005469Y0094526D02*
X0169992Y0094526D01*
X0169992Y0095124D02*
X0005469Y0095124D01*
X0005469Y0095723D02*
X0169992Y0095723D01*
X0169992Y0096321D02*
X0005469Y0096321D01*
X0005469Y0096920D02*
X0169992Y0096920D01*
X0169992Y0097518D02*
X0005469Y0097518D01*
X0005469Y0098117D02*
X0169992Y0098117D01*
X0169992Y0098715D02*
X0005469Y0098715D01*
X0005469Y0099314D02*
X0169992Y0099314D01*
X0169992Y0099912D02*
X0005469Y0099912D01*
X0005469Y0100511D02*
X0169992Y0100511D01*
X0169992Y0101109D02*
X0005469Y0101109D01*
X0005469Y0101708D02*
X0169992Y0101708D01*
X0169992Y0102306D02*
X0005469Y0102306D01*
X0005469Y0102905D02*
X0169992Y0102905D01*
X0169992Y0103503D02*
X0005469Y0103503D01*
X0005469Y0104102D02*
X0169992Y0104102D01*
X0169992Y0104700D02*
X0005469Y0104700D01*
X0005469Y0092131D02*
X0042836Y0092131D01*
X0042786Y0091533D02*
X0005469Y0091533D01*
X0005469Y0090934D02*
X0042786Y0090934D01*
X0042786Y0090336D02*
X0005469Y0090336D01*
X0005469Y0089737D02*
X0042786Y0089737D01*
X0042786Y0089139D02*
X0005469Y0089139D01*
X0005469Y0088540D02*
X0042786Y0088540D01*
X0042786Y0087942D02*
X0005469Y0087942D01*
X0005469Y0087343D02*
X0042786Y0087343D01*
X0031678Y0086745D02*
X0005469Y0086745D01*
X0005469Y0086146D02*
X0031641Y0086146D01*
X0031641Y0085548D02*
X0005469Y0085548D01*
X0005469Y0084949D02*
X0031641Y0084949D01*
X0031641Y0084351D02*
X0005469Y0084351D01*
X0005469Y0083752D02*
X0031641Y0083752D01*
X0031641Y0083154D02*
X0005469Y0083154D01*
X0013279Y0082555D02*
X0031641Y0082555D01*
X0031641Y0081957D02*
X0013515Y0081957D01*
X0013515Y0081358D02*
X0031641Y0081358D01*
X0031641Y0080760D02*
X0013515Y0080760D01*
X0013515Y0080161D02*
X0031899Y0080161D01*
X0041691Y0077169D02*
X0013515Y0077169D01*
X0013515Y0076570D02*
X0042289Y0076570D01*
X0042654Y0075972D02*
X0013515Y0075972D01*
X0013515Y0075373D02*
X0043048Y0075373D01*
X0045635Y0075373D02*
X0061874Y0075373D01*
X0061874Y0074775D02*
X0013213Y0074775D01*
X0011316Y0072381D02*
X0062163Y0072381D01*
X0062163Y0072979D02*
X0005469Y0072979D01*
X0005469Y0072381D02*
X0007419Y0072381D01*
X0006585Y0071782D02*
X0005469Y0071782D01*
X0005469Y0071184D02*
X0005987Y0071184D01*
X0005659Y0070585D02*
X0005469Y0070585D01*
X0005469Y0073578D02*
X0062163Y0073578D01*
X0061874Y0074176D02*
X0005469Y0074176D01*
X0005469Y0074775D02*
X0005522Y0074775D01*
X0013497Y0069566D02*
X0042630Y0069566D01*
X0044728Y0067469D01*
X0043434Y0067469D01*
X0043134Y0067168D01*
X0024796Y0067168D01*
X0023976Y0066348D01*
X0010561Y0052933D01*
X0010561Y0052693D01*
X0010192Y0052846D01*
X0008542Y0052846D01*
X0007018Y0052214D01*
X0005851Y0051048D01*
X0005469Y0050125D01*
X0005469Y0057270D01*
X0005851Y0056348D01*
X0007018Y0055181D01*
X0008542Y0054550D01*
X0010192Y0054550D01*
X0011717Y0055181D01*
X0012884Y0056348D01*
X0013515Y0057873D01*
X0013515Y0059523D01*
X0012884Y0061048D01*
X0011717Y0062214D01*
X0010192Y0062846D01*
X0008542Y0062846D01*
X0007018Y0062214D01*
X0005851Y0061048D01*
X0005469Y0060125D01*
X0005469Y0067270D01*
X0005851Y0066348D01*
X0007018Y0065181D01*
X0008542Y0064550D01*
X0010192Y0064550D01*
X0011717Y0065181D01*
X0012884Y0066348D01*
X0013515Y0067873D01*
X0013515Y0069523D01*
X0013497Y0069566D01*
X0013515Y0069388D02*
X0042809Y0069388D01*
X0043407Y0068790D02*
X0013515Y0068790D01*
X0013515Y0068191D02*
X0044006Y0068191D01*
X0044604Y0067593D02*
X0013399Y0067593D01*
X0013151Y0066994D02*
X0024622Y0066994D01*
X0024023Y0066395D02*
X0012903Y0066395D01*
X0012333Y0065797D02*
X0023425Y0065797D01*
X0022826Y0065198D02*
X0011734Y0065198D01*
X0010313Y0064600D02*
X0022228Y0064600D01*
X0021629Y0064001D02*
X0005469Y0064001D01*
X0005469Y0063403D02*
X0021031Y0063403D01*
X0020432Y0062804D02*
X0010293Y0062804D01*
X0011725Y0062206D02*
X0019834Y0062206D01*
X0019235Y0061607D02*
X0012324Y0061607D01*
X0012900Y0061009D02*
X0018637Y0061009D01*
X0018038Y0060410D02*
X0013148Y0060410D01*
X0013396Y0059812D02*
X0017440Y0059812D01*
X0016841Y0059213D02*
X0013515Y0059213D01*
X0013515Y0058615D02*
X0016243Y0058615D01*
X0015644Y0058016D02*
X0013515Y0058016D01*
X0013327Y0057418D02*
X0015046Y0057418D01*
X0014447Y0056819D02*
X0013079Y0056819D01*
X0012756Y0056221D02*
X0013849Y0056221D01*
X0013250Y0055622D02*
X0012158Y0055622D01*
X0012652Y0055024D02*
X0011336Y0055024D01*
X0012053Y0054425D02*
X0005469Y0054425D01*
X0005469Y0053827D02*
X0011455Y0053827D01*
X0010856Y0053228D02*
X0005469Y0053228D01*
X0005469Y0052630D02*
X0008020Y0052630D01*
X0006834Y0052031D02*
X0005469Y0052031D01*
X0005469Y0051433D02*
X0006236Y0051433D01*
X0005762Y0050834D02*
X0005469Y0050834D01*
X0005469Y0050236D02*
X0005514Y0050236D01*
X0005469Y0047243D02*
X0005480Y0047243D01*
X0005469Y0046645D02*
X0005728Y0046645D01*
X0005469Y0046046D02*
X0006153Y0046046D01*
X0006751Y0045448D02*
X0005469Y0045448D01*
X0005469Y0044849D02*
X0007820Y0044849D01*
X0005469Y0044251D02*
X0049440Y0044251D01*
X0049818Y0044629D02*
X0048830Y0043641D01*
X0048830Y0042243D01*
X0049818Y0041255D01*
X0051216Y0041255D01*
X0052205Y0042243D01*
X0052205Y0043641D01*
X0051216Y0044629D01*
X0049818Y0044629D01*
X0048841Y0043652D02*
X0005469Y0043652D01*
X0005469Y0043054D02*
X0048830Y0043054D01*
X0048830Y0042455D02*
X0005469Y0042455D01*
X0005469Y0041857D02*
X0049217Y0041857D01*
X0049815Y0041258D02*
X0005469Y0041258D01*
X0005469Y0040659D02*
X0053057Y0040659D01*
X0053057Y0040061D02*
X0005469Y0040061D01*
X0005469Y0039462D02*
X0053173Y0039462D01*
X0053697Y0038864D02*
X0005469Y0038864D01*
X0005469Y0038265D02*
X0057657Y0038265D01*
X0057657Y0037667D02*
X0018583Y0037667D01*
X0019182Y0037068D02*
X0057657Y0037068D01*
X0057370Y0036470D02*
X0019228Y0036470D01*
X0019228Y0035871D02*
X0057370Y0035871D01*
X0057370Y0035273D02*
X0019219Y0035273D01*
X0019253Y0034674D02*
X0057807Y0034674D01*
X0060307Y0034674D02*
X0118840Y0034674D01*
X0118762Y0034596D02*
X0118762Y0030450D01*
X0119289Y0029923D01*
X0127047Y0029923D01*
X0127574Y0030450D01*
X0127574Y0035350D01*
X0131239Y0035350D01*
X0131767Y0035877D01*
X0131767Y0043062D01*
X0131239Y0043589D01*
X0124797Y0043589D01*
X0124270Y0043062D01*
X0124270Y0038517D01*
X0124256Y0038503D01*
X0124256Y0035123D01*
X0119289Y0035123D01*
X0118762Y0034596D01*
X0118762Y0034076D02*
X0019852Y0034076D01*
X0020450Y0033477D02*
X0118762Y0033477D01*
X0118762Y0032879D02*
X0021049Y0032879D01*
X0021647Y0032280D02*
X0118762Y0032280D01*
X0118762Y0031682D02*
X0022246Y0031682D01*
X0022844Y0031083D02*
X0118762Y0031083D01*
X0118762Y0030485D02*
X0023443Y0030485D01*
X0024041Y0029886D02*
X0163956Y0029886D01*
X0163956Y0029288D02*
X0024640Y0029288D01*
X0025238Y0028689D02*
X0163956Y0028689D01*
X0163956Y0028091D02*
X0025837Y0028091D01*
X0026435Y0027492D02*
X0163956Y0027492D01*
X0163956Y0026894D02*
X0027034Y0026894D01*
X0027632Y0026295D02*
X0163956Y0026295D01*
X0163956Y0025697D02*
X0028231Y0025697D01*
X0028829Y0025098D02*
X0163956Y0025098D01*
X0163956Y0024500D02*
X0029428Y0024500D01*
X0030027Y0023901D02*
X0163956Y0023901D01*
X0163956Y0023303D02*
X0030625Y0023303D01*
X0024021Y0025098D02*
X0011516Y0025098D01*
X0012232Y0025697D02*
X0023423Y0025697D01*
X0022824Y0026295D02*
X0012831Y0026295D01*
X0013110Y0026894D02*
X0022226Y0026894D01*
X0021627Y0027492D02*
X0013358Y0027492D01*
X0013515Y0028091D02*
X0021029Y0028091D01*
X0020430Y0028689D02*
X0013515Y0028689D01*
X0013515Y0029288D02*
X0019832Y0029288D01*
X0019233Y0029886D02*
X0013365Y0029886D01*
X0013117Y0030485D02*
X0018635Y0030485D01*
X0018036Y0031083D02*
X0012848Y0031083D01*
X0012250Y0031682D02*
X0017438Y0031682D01*
X0016839Y0032280D02*
X0011558Y0032280D01*
X0007177Y0032280D02*
X0005469Y0032280D01*
X0005469Y0031682D02*
X0006485Y0031682D01*
X0005886Y0031083D02*
X0005469Y0031083D01*
X0005469Y0030485D02*
X0005618Y0030485D01*
X0005469Y0032879D02*
X0016241Y0032879D01*
X0015819Y0033477D02*
X0005469Y0033477D01*
X0005469Y0034076D02*
X0015819Y0034076D01*
X0015819Y0034674D02*
X0005469Y0034674D01*
X0005469Y0035273D02*
X0015819Y0035273D01*
X0015819Y0035871D02*
X0005469Y0035871D01*
X0005469Y0036470D02*
X0015819Y0036470D01*
X0015900Y0037068D02*
X0005469Y0037068D01*
X0005469Y0037667D02*
X0016498Y0037667D01*
X0010915Y0044849D02*
X0053057Y0044849D01*
X0053057Y0044251D02*
X0051595Y0044251D01*
X0052194Y0043652D02*
X0053057Y0043652D01*
X0053057Y0043054D02*
X0052205Y0043054D01*
X0052205Y0042455D02*
X0053057Y0042455D01*
X0053057Y0041857D02*
X0051818Y0041857D01*
X0051220Y0041258D02*
X0053057Y0041258D01*
X0056548Y0040061D02*
X0056598Y0040061D01*
X0056548Y0039462D02*
X0057196Y0039462D01*
X0057657Y0038864D02*
X0056024Y0038864D01*
X0058762Y0041857D02*
X0124270Y0041857D01*
X0124270Y0042455D02*
X0058163Y0042455D01*
X0057739Y0043054D02*
X0124270Y0043054D01*
X0124270Y0041258D02*
X0059360Y0041258D01*
X0059959Y0040659D02*
X0124270Y0040659D01*
X0124270Y0040061D02*
X0060457Y0040061D01*
X0060457Y0039462D02*
X0124270Y0039462D01*
X0124270Y0038864D02*
X0060457Y0038864D01*
X0060457Y0038265D02*
X0124256Y0038265D01*
X0124256Y0037667D02*
X0060457Y0037667D01*
X0060457Y0037068D02*
X0124256Y0037068D01*
X0124256Y0036470D02*
X0060744Y0036470D01*
X0060744Y0035871D02*
X0124256Y0035871D01*
X0124256Y0035273D02*
X0060744Y0035273D01*
X0057739Y0043652D02*
X0166388Y0043652D01*
X0166388Y0043054D02*
X0131767Y0043054D01*
X0131767Y0042455D02*
X0166388Y0042455D01*
X0166388Y0041857D02*
X0165392Y0041857D01*
X0165990Y0041258D02*
X0166388Y0041258D01*
X0166370Y0040659D02*
X0166388Y0040659D01*
X0163149Y0041857D02*
X0131767Y0041857D01*
X0131767Y0041258D02*
X0162551Y0041258D01*
X0162288Y0040659D02*
X0131767Y0040659D01*
X0131767Y0040061D02*
X0162288Y0040061D01*
X0162288Y0039462D02*
X0131767Y0039462D01*
X0131767Y0038864D02*
X0162776Y0038864D01*
X0163375Y0038265D02*
X0131767Y0038265D01*
X0131767Y0037667D02*
X0163956Y0037667D01*
X0163956Y0037068D02*
X0131767Y0037068D01*
X0131767Y0036470D02*
X0163956Y0036470D01*
X0163956Y0035871D02*
X0131761Y0035871D01*
X0127574Y0035273D02*
X0163956Y0035273D01*
X0163956Y0034674D02*
X0127574Y0034674D01*
X0127574Y0034076D02*
X0163956Y0034076D01*
X0163956Y0033477D02*
X0127574Y0033477D01*
X0127574Y0032879D02*
X0163956Y0032879D01*
X0163956Y0032280D02*
X0127574Y0032280D01*
X0127574Y0031682D02*
X0163956Y0031682D01*
X0163956Y0031083D02*
X0127574Y0031083D01*
X0127574Y0030485D02*
X0163956Y0030485D01*
X0166388Y0044251D02*
X0057739Y0044251D01*
X0057739Y0044849D02*
X0166388Y0044849D01*
X0166388Y0045448D02*
X0057739Y0045448D01*
X0057739Y0046046D02*
X0165842Y0046046D01*
X0165244Y0046645D02*
X0057739Y0046645D01*
X0057739Y0047243D02*
X0156106Y0047243D01*
X0155508Y0047842D02*
X0057739Y0047842D01*
X0057715Y0048440D02*
X0154909Y0048440D01*
X0154311Y0049039D02*
X0057116Y0049039D01*
X0056518Y0049637D02*
X0153712Y0049637D01*
X0153114Y0050236D02*
X0055919Y0050236D01*
X0055321Y0050834D02*
X0152515Y0050834D01*
X0151917Y0051433D02*
X0055942Y0051433D01*
X0056335Y0052031D02*
X0151318Y0052031D01*
X0150720Y0052630D02*
X0056427Y0052630D01*
X0056427Y0053228D02*
X0150121Y0053228D01*
X0149523Y0053827D02*
X0056427Y0053827D01*
X0056427Y0054425D02*
X0148924Y0054425D01*
X0148326Y0055024D02*
X0056427Y0055024D01*
X0056427Y0055622D02*
X0147727Y0055622D01*
X0157324Y0050834D02*
X0169992Y0050834D01*
X0169992Y0052630D02*
X0166391Y0052630D01*
X0166579Y0053228D02*
X0169992Y0053228D01*
X0169992Y0053827D02*
X0166579Y0053827D01*
X0166579Y0054425D02*
X0169992Y0054425D01*
X0169992Y0055024D02*
X0166016Y0055024D01*
X0164504Y0055622D02*
X0169992Y0055622D01*
X0169992Y0056221D02*
X0163906Y0056221D01*
X0163307Y0056819D02*
X0169992Y0056819D01*
X0169992Y0057418D02*
X0162709Y0057418D01*
X0162110Y0058016D02*
X0169992Y0058016D01*
X0169992Y0058615D02*
X0161512Y0058615D01*
X0160913Y0059213D02*
X0169992Y0059213D01*
X0169992Y0059812D02*
X0160315Y0059812D01*
X0159716Y0060410D02*
X0169992Y0060410D01*
X0163220Y0066395D02*
X0158913Y0066395D01*
X0155551Y0066994D02*
X0153899Y0066994D01*
X0153301Y0066395D02*
X0154953Y0066395D01*
X0154354Y0065797D02*
X0152702Y0065797D01*
X0152104Y0065198D02*
X0153756Y0065198D01*
X0153157Y0064600D02*
X0151505Y0064600D01*
X0150907Y0064001D02*
X0152559Y0064001D01*
X0149341Y0066395D02*
X0066669Y0066395D01*
X0066730Y0066457D02*
X0066428Y0066155D01*
X0065030Y0066155D01*
X0064041Y0067143D01*
X0064041Y0068541D01*
X0065030Y0069530D01*
X0066428Y0069530D01*
X0066701Y0069257D01*
X0128740Y0069257D01*
X0129968Y0070485D01*
X0129968Y0071295D01*
X0131130Y0072456D01*
X0132772Y0072456D01*
X0133934Y0071295D01*
X0133934Y0069652D01*
X0132772Y0068491D01*
X0131934Y0068491D01*
X0129900Y0066457D01*
X0066730Y0066457D01*
X0064789Y0066395D02*
X0053394Y0066395D01*
X0053378Y0065797D02*
X0053852Y0065797D01*
X0053993Y0066994D02*
X0064191Y0066994D01*
X0064041Y0067593D02*
X0054591Y0067593D01*
X0052427Y0069388D02*
X0046768Y0069388D01*
X0046170Y0069987D02*
X0053025Y0069987D01*
X0051828Y0068790D02*
X0047367Y0068790D01*
X0047965Y0068191D02*
X0051230Y0068191D01*
X0050631Y0067593D02*
X0047978Y0067593D01*
X0047978Y0066994D02*
X0050578Y0066994D01*
X0050578Y0066395D02*
X0048251Y0066395D01*
X0048251Y0065797D02*
X0050578Y0065797D01*
X0050283Y0065198D02*
X0048251Y0065198D01*
X0047768Y0064600D02*
X0050283Y0064600D01*
X0050283Y0064001D02*
X0025589Y0064001D01*
X0024991Y0063403D02*
X0050578Y0063403D01*
X0050871Y0062804D02*
X0024392Y0062804D01*
X0023793Y0062206D02*
X0051469Y0062206D01*
X0052068Y0061607D02*
X0023195Y0061607D01*
X0022596Y0061009D02*
X0053627Y0061009D01*
X0053627Y0060410D02*
X0021998Y0060410D01*
X0021399Y0059812D02*
X0053627Y0059812D01*
X0053627Y0059213D02*
X0020801Y0059213D01*
X0020202Y0058615D02*
X0053627Y0058615D01*
X0053627Y0058016D02*
X0019604Y0058016D01*
X0019005Y0057418D02*
X0053627Y0057418D01*
X0053627Y0056819D02*
X0018407Y0056819D01*
X0018045Y0056221D02*
X0053627Y0056221D01*
X0053627Y0055622D02*
X0018644Y0055622D01*
X0019206Y0055024D02*
X0053627Y0055024D01*
X0053627Y0054425D02*
X0019206Y0054425D01*
X0015430Y0053228D02*
X0014816Y0053228D01*
X0014217Y0052630D02*
X0016029Y0052630D01*
X0017509Y0052031D02*
X0013619Y0052031D01*
X0013361Y0051433D02*
X0018108Y0051433D01*
X0013361Y0050834D02*
X0043807Y0050834D01*
X0044405Y0050236D02*
X0013361Y0050236D01*
X0013468Y0049637D02*
X0046024Y0049637D01*
X0045949Y0050236D02*
X0045820Y0050236D01*
X0046622Y0049039D02*
X0013515Y0049039D01*
X0013515Y0048440D02*
X0047221Y0048440D01*
X0047819Y0047842D02*
X0013502Y0047842D01*
X0013254Y0047243D02*
X0048418Y0047243D01*
X0051399Y0046645D02*
X0013007Y0046645D01*
X0012582Y0046046D02*
X0051997Y0046046D01*
X0052596Y0045448D02*
X0011983Y0045448D01*
X0007398Y0055024D02*
X0005469Y0055024D01*
X0005469Y0055622D02*
X0006577Y0055622D01*
X0005978Y0056221D02*
X0005469Y0056221D01*
X0005469Y0056819D02*
X0005656Y0056819D01*
X0005587Y0060410D02*
X0005469Y0060410D01*
X0005469Y0061009D02*
X0005835Y0061009D01*
X0005469Y0061607D02*
X0006411Y0061607D01*
X0007009Y0062206D02*
X0005469Y0062206D01*
X0005469Y0062804D02*
X0008442Y0062804D01*
X0008421Y0064600D02*
X0005469Y0064600D01*
X0005469Y0065198D02*
X0007001Y0065198D01*
X0006402Y0065797D02*
X0005469Y0065797D01*
X0005469Y0066395D02*
X0005831Y0066395D01*
X0005583Y0066994D02*
X0005469Y0066994D01*
X0044374Y0071782D02*
X0061905Y0071782D01*
X0061307Y0071184D02*
X0044973Y0071184D01*
X0045571Y0070585D02*
X0060708Y0070585D01*
X0062872Y0068790D02*
X0064290Y0068790D01*
X0064041Y0068191D02*
X0062274Y0068191D01*
X0063471Y0069388D02*
X0064888Y0069388D01*
X0064069Y0069987D02*
X0129470Y0069987D01*
X0129968Y0070585D02*
X0064668Y0070585D01*
X0064963Y0071184D02*
X0129968Y0071184D01*
X0130456Y0071782D02*
X0064963Y0071782D01*
X0064963Y0072381D02*
X0131054Y0072381D01*
X0132848Y0072381D02*
X0155326Y0072381D01*
X0155925Y0072979D02*
X0064963Y0072979D01*
X0064963Y0073578D02*
X0156523Y0073578D01*
X0157122Y0074176D02*
X0065249Y0074176D01*
X0065249Y0074775D02*
X0157332Y0074775D01*
X0157332Y0075373D02*
X0065249Y0075373D01*
X0064655Y0075972D02*
X0157332Y0075972D01*
X0157332Y0076570D02*
X0046029Y0076570D01*
X0046029Y0075972D02*
X0062469Y0075972D01*
X0066569Y0069388D02*
X0128871Y0069388D01*
X0131036Y0067593D02*
X0150538Y0067593D01*
X0151137Y0068191D02*
X0131634Y0068191D01*
X0133071Y0068790D02*
X0151735Y0068790D01*
X0152334Y0069388D02*
X0133669Y0069388D01*
X0133934Y0069987D02*
X0152932Y0069987D01*
X0153531Y0070585D02*
X0133934Y0070585D01*
X0133934Y0071184D02*
X0154129Y0071184D01*
X0154728Y0071782D02*
X0133446Y0071782D01*
X0130437Y0066994D02*
X0149940Y0066994D01*
X0148743Y0065797D02*
X0056046Y0065797D01*
X0056636Y0065198D02*
X0073105Y0065198D01*
X0072506Y0064600D02*
X0056636Y0064600D01*
X0056636Y0064001D02*
X0071908Y0064001D01*
X0071309Y0063403D02*
X0066636Y0063403D01*
X0064822Y0063403D02*
X0056230Y0063403D01*
X0055992Y0062804D02*
X0064223Y0062804D01*
X0064041Y0062206D02*
X0056427Y0062206D01*
X0056427Y0061607D02*
X0064041Y0061607D01*
X0064041Y0058016D02*
X0056427Y0058016D01*
X0056427Y0057418D02*
X0064041Y0057418D01*
X0064559Y0056819D02*
X0056427Y0056819D01*
X0056427Y0056221D02*
X0110227Y0056221D01*
X0109629Y0056819D02*
X0074751Y0056819D01*
X0075350Y0057418D02*
X0109371Y0057418D01*
X0109371Y0058016D02*
X0075948Y0058016D01*
X0076547Y0058615D02*
X0109371Y0058615D01*
X0109866Y0059213D02*
X0077145Y0059213D01*
X0053563Y0053827D02*
X0045165Y0053827D01*
X0046185Y0053228D02*
X0046216Y0053228D01*
X0048361Y0053228D02*
X0048430Y0053228D01*
X0052927Y0053228D02*
X0052964Y0053228D01*
X0045358Y0064600D02*
X0045338Y0064600D01*
X0046025Y0077169D02*
X0157332Y0077169D01*
X0157332Y0077767D02*
X0046239Y0077767D01*
X0046837Y0078366D02*
X0157332Y0078366D01*
X0157332Y0078964D02*
X0047192Y0078964D01*
X0047192Y0079563D02*
X0157645Y0079563D01*
X0158243Y0080161D02*
X0091184Y0080161D01*
X0091443Y0080760D02*
X0158842Y0080760D01*
X0159440Y0081358D02*
X0091443Y0081358D01*
X0091443Y0081957D02*
X0160039Y0081957D01*
X0160637Y0082555D02*
X0091443Y0082555D01*
X0154498Y0067593D02*
X0156150Y0067593D01*
X0156748Y0068191D02*
X0155096Y0068191D01*
X0155695Y0068790D02*
X0157347Y0068790D01*
X0157945Y0069388D02*
X0156293Y0069388D01*
D11*
X0123168Y0032523D03*
D12*
X0125915Y0035019D03*
D13*
X0128018Y0039470D03*
D14*
X0061542Y0083564D03*
D15*
X0067107Y0086754D03*
D16*
X0009367Y0068698D03*
X0009367Y0058698D03*
X0009367Y0048698D03*
X0009367Y0038698D03*
X0009367Y0028698D03*
D17*
X0009367Y0078698D03*
D18*
X0018045Y0074031D03*
X0020407Y0074031D03*
X0023950Y0074031D03*
X0025131Y0076393D03*
X0027494Y0074031D03*
X0028675Y0076393D03*
X0031037Y0074031D03*
X0032218Y0068125D03*
X0025131Y0068125D03*
X0018045Y0068125D03*
X0015683Y0068125D03*
X0015683Y0064582D03*
X0015683Y0061039D03*
X0015683Y0050409D03*
X0019226Y0050409D03*
X0018045Y0048047D03*
X0015683Y0045684D03*
X0015683Y0040960D03*
X0015683Y0038598D03*
X0050020Y0029922D03*
X0052206Y0029922D03*
X0053005Y0016045D03*
X0050643Y0016045D03*
X0048281Y0016045D03*
X0034107Y0013683D03*
X0030564Y0013683D03*
X0027021Y0013683D03*
X0023477Y0013683D03*
X0023477Y0016045D03*
X0012848Y0016045D03*
X0012848Y0018407D03*
X0012848Y0020770D03*
X0088470Y0018654D03*
X0092407Y0018654D03*
X0096344Y0018654D03*
X0103439Y0020583D03*
X0107376Y0020583D03*
X0111313Y0020583D03*
X0115250Y0020583D03*
X0109432Y0025015D03*
X0109401Y0027978D03*
X0109360Y0030859D03*
X0147673Y0016898D03*
X0150258Y0019437D03*
X0151610Y0016898D03*
X0154195Y0019437D03*
X0155547Y0016898D03*
X0158132Y0019437D03*
X0162069Y0019437D03*
X0160635Y0022276D03*
X0156698Y0022276D03*
X0152761Y0022276D03*
X0148824Y0022276D03*
X0154576Y0029315D03*
X0155781Y0031847D03*
X0159093Y0031908D03*
X0160418Y0029315D03*
X0157467Y0029315D03*
X0162165Y0031968D03*
X0156564Y0035947D03*
X0155118Y0042698D03*
X0157889Y0042879D03*
X0160599Y0043000D03*
X0160298Y0045893D03*
X0163189Y0045954D03*
X0157226Y0045893D03*
X0154456Y0045954D03*
X0151625Y0049571D03*
X0124010Y0051818D03*
X0121648Y0055361D03*
X0104084Y0058207D03*
X0096998Y0058207D03*
X0093454Y0058207D03*
X0092654Y0070340D03*
X0097378Y0070340D03*
X0102103Y0070340D03*
X0103284Y0073883D03*
X0099740Y0073883D03*
X0095016Y0073883D03*
X0098026Y0076621D03*
X0101569Y0076621D03*
X0101569Y0084889D03*
X0098026Y0084889D03*
X0094482Y0084889D03*
X0109837Y0087251D03*
X0122829Y0087251D03*
X0126380Y0083545D03*
X0121195Y0075823D03*
X0123558Y0073460D03*
X0115882Y0070090D03*
X0153581Y0091672D03*
X0159486Y0091672D03*
X0165392Y0091672D03*
X0165392Y0091672D03*
X0161836Y0096437D03*
X0155930Y0096437D03*
X0150025Y0096437D03*
X0144119Y0102343D03*
X0161836Y0102343D03*
X0120497Y0102343D03*
X0096875Y0102343D03*
X0085064Y0102343D03*
X0089308Y0093594D03*
X0077497Y0093594D03*
X0071592Y0093594D03*
X0065686Y0093594D03*
X0059781Y0093594D03*
X0053875Y0093594D03*
X0047970Y0093594D03*
X0039305Y0089385D03*
X0034580Y0089385D03*
X0027494Y0083480D03*
X0023950Y0083480D03*
X0020407Y0083480D03*
X0020407Y0087023D03*
X0023950Y0087023D03*
X0007392Y0086847D03*
X0007392Y0091744D03*
X0007392Y0096746D03*
X0015354Y0103029D03*
X0021880Y0103029D03*
X0028751Y0103029D03*
X0036559Y0103029D03*
X0043014Y0103029D03*
X0034725Y0099113D03*
X0030660Y0099113D03*
X0026395Y0099113D03*
X0021978Y0099113D03*
D19*
X0045505Y0079419D03*
X0044342Y0076466D03*
X0047285Y0074679D03*
X0057157Y0075520D03*
X0057157Y0077460D03*
X0059374Y0077460D03*
X0059374Y0075560D03*
X0063562Y0074679D03*
X0070663Y0077590D03*
X0072931Y0077590D03*
X0075107Y0077590D03*
X0065729Y0067842D03*
X0064774Y0063884D03*
X0065729Y0061924D03*
X0065729Y0058036D03*
X0056830Y0059827D03*
X0053093Y0059881D03*
X0053070Y0057728D03*
X0049107Y0057430D03*
X0046610Y0057591D03*
X0046610Y0059973D03*
X0044411Y0059904D03*
X0048947Y0059996D03*
X0051971Y0064623D03*
X0054949Y0064508D03*
X0046563Y0065781D03*
X0044133Y0065781D03*
X0033867Y0054571D03*
X0026337Y0049280D03*
X0013720Y0042984D03*
X0017541Y0036323D03*
X0015672Y0032593D03*
X0046496Y0041738D03*
X0046496Y0043914D03*
X0050517Y0042942D03*
X0054861Y0040087D03*
X0058369Y0043769D03*
X0059057Y0035811D03*
X0049503Y0051915D03*
X0047289Y0051915D03*
X0045113Y0051915D03*
X0054647Y0052525D03*
X0021268Y0057625D03*
X0098026Y0084889D03*
D20*
X0089309Y0082610D03*
X0050625Y0081769D03*
X0033963Y0083846D03*
X0017224Y0054238D03*
X0111354Y0057898D03*
X0134153Y0058568D03*
X0131951Y0070474D03*
X0164345Y0068074D03*
X0164205Y0081768D03*
X0164596Y0053639D03*
X0164271Y0040174D03*
X0127325Y0041314D03*
X0120963Y0032921D03*
D21*
X0147877Y0057877D02*
X0156841Y0048913D01*
X0165379Y0048913D01*
X0168088Y0046205D01*
X0168088Y0014412D01*
X0164544Y0010868D01*
X0011881Y0010868D01*
X0009174Y0013576D01*
X0009174Y0026257D01*
X0017519Y0034004D02*
X0038108Y0013416D01*
X0163072Y0013416D01*
X0165656Y0016000D01*
X0165656Y0038969D01*
X0164572Y0040053D01*
X0147877Y0057877D02*
X0111333Y0057877D01*
X0017519Y0036215D02*
X0017519Y0034004D01*
D22*
X0011961Y0049609D02*
X0011961Y0052354D01*
X0025376Y0065768D01*
X0044255Y0065768D01*
X0046578Y0065716D02*
X0046578Y0067599D01*
X0043210Y0070966D01*
X0010545Y0070966D01*
X0011900Y0078695D02*
X0042145Y0078695D01*
X0044389Y0076450D01*
X0051978Y0066960D02*
X0054185Y0069166D01*
X0061269Y0069166D01*
X0063563Y0071460D01*
X0063563Y0074568D01*
X0065746Y0067857D02*
X0129320Y0067857D01*
X0131877Y0070414D01*
X0149275Y0064350D02*
X0158732Y0073806D01*
X0158732Y0078670D01*
X0161768Y0081706D01*
X0164056Y0081706D01*
X0164543Y0068022D02*
X0158559Y0068022D01*
X0153130Y0062593D01*
X0075532Y0062593D01*
X0072729Y0059789D01*
X0056841Y0059789D01*
X0055027Y0061790D02*
X0055027Y0052902D01*
X0054649Y0052525D01*
X0052342Y0051833D02*
X0056339Y0047836D01*
X0056339Y0042299D01*
X0059057Y0039582D01*
X0059057Y0035816D01*
X0054875Y0040083D02*
X0054457Y0040501D01*
X0054457Y0045566D01*
X0051781Y0048242D01*
X0049399Y0048242D01*
X0047349Y0050292D01*
X0047349Y0051924D01*
X0049433Y0051833D02*
X0052342Y0051833D01*
X0045068Y0051944D02*
X0044458Y0052554D01*
X0018966Y0052554D01*
X0017311Y0054209D01*
X0051978Y0063677D02*
X0052994Y0062661D01*
X0054156Y0062661D01*
X0055027Y0061790D01*
X0051978Y0063677D02*
X0051978Y0066960D01*
X0065747Y0061923D02*
X0071810Y0061923D01*
X0074236Y0064350D01*
X0149275Y0064350D01*
X0157160Y0060987D02*
X0076938Y0060987D01*
X0073898Y0057946D01*
X0065774Y0057946D01*
X0157160Y0060987D02*
X0164543Y0053603D01*
M02*
